<svg width="229" height="178" viewBox="0 0 229 178" fill="none" xmlns="http://www.w3.org/2000/svg">
<g clip-path="url(#clip0_48_119)">
<path d="M63.026 2.76398C57.568 0.980983 50.175 -1.74487e-05 42.209 -1.74487e-05C37.2878 -0.0263915 32.3738 0.38085 27.524 1.21698C10.907 4.40598 0.878012 14.25 0.700012 27.587V111.376C0.882012 123.487 9.61601 132.976 24.057 136.747C30.0107 138.153 36.1151 138.82 42.232 138.732C48.6515 138.83 55.0565 138.095 61.287 136.546C75.402 132.522 83.497 123.267 83.497 111.155V108.449L69.056 108.735V111.335C69.056 118.6 60.824 121.681 57.29 122.668C52.3587 123.883 47.2913 124.459 42.213 124.38V124.38C37.3636 124.444 32.5238 123.93 27.796 122.849C23.996 121.833 15.146 118.677 15.146 111.335V27.587C15.146 18.995 26.656 16.074 30.162 15.387C34.2937 14.6569 38.4824 14.2975 42.678 14.313C48.0592 14.207 53.426 14.9071 58.6 16.39C62.505 17.725 69.055 20.954 69.055 27.59V30.24H83.494V27.587C83.494 16.057 76.236 7.24498 63.026 2.76398Z" fill="white"/>
<path d="M119.979 0.880981H105.397V139.614H119.979V0.880981Z" fill="white"/>
<path d="M191.372 1.76196H143.081V138.732H190.054C208.426 138.732 228.2 129.912 228.2 110.545V29.76C228.2 11.379 209.673 1.76196 191.372 1.76196ZM212.73 113.662C210.39 120.682 199.336 123.879 190.054 123.879H157.937V16.433H191.181C200.119 16.433 213.345 20.668 213.345 29.76C213.345 32.249 213.359 35.919 213.376 40.36L213.387 43.068C213.475 64.794 213.659 110 212.73 113.658V113.662Z" fill="white"/>
<path d="M10.519 177.428H7.74L0 153.877H3.705L9.129 171.011L14.554 153.877H18.325L10.519 177.428Z" fill="white"/>
<path d="M20.739 177.428V153.877H24.312V177.428H20.739Z" fill="white"/>
<path d="M29.637 177.428V153.877H33.209V174.219H44.555V177.428H29.637Z" fill="white"/>
<path d="M47.8 177.428V153.877H51.372V174.219H62.714V177.428H47.8Z" fill="white"/>
<path d="M79.484 177.428L77.863 172.698H68.569L66.948 177.428H63.148L71.781 153.877H74.659L83.292 177.428H79.484ZM73.3 159.235L69.628 169.688H76.872L73.3 159.235Z" fill="white"/>
<path d="M106.442 177.428L104.821 172.698H95.521L93.901 177.428H90.1L98.733 153.877H101.611L110.244 177.428H106.442ZM100.256 159.235L96.585 169.688H103.829L100.256 159.235Z" fill="white"/>
<path d="M112.76 177.428V153.877H116.332V174.219H127.678V177.428H112.76Z" fill="white"/>
<path d="M130.919 177.428V153.877H134.491V174.219H145.837V177.428H130.919Z" fill="white"/>
<path d="M149.078 177.428V153.877H164.129V157.085H152.651V163.965H162.441V167.141H152.651V174.219H164.129V177.428H149.078Z" fill="white"/>
<path d="M182.652 177.428L171.769 160.856V177.428H168.2V153.877H171.475L182.357 170.415V153.877H185.93V177.428H182.652Z" fill="white"/>
<path d="M207.972 168.1C207.962 168.964 207.89 169.826 207.757 170.68C207.627 171.511 207.393 172.322 207.062 173.095C206.718 173.888 206.224 174.606 205.607 175.212C204.852 175.965 203.936 176.536 202.928 176.882C201.831 177.256 200.679 177.44 199.521 177.428H191.251V153.877H199.521C200.679 153.865 201.831 154.049 202.928 154.423C203.936 154.769 204.852 155.34 205.607 156.093C206.214 156.687 206.708 157.388 207.062 158.16C207.393 158.899 207.627 159.677 207.757 160.476C207.89 161.291 207.962 162.114 207.972 162.94C207.983 163.778 207.988 164.627 207.989 165.487C207.99 166.347 207.984 167.218 207.972 168.1ZM204.251 161.369C204.19 160.374 203.807 159.426 203.159 158.669C202.646 158.132 202.023 157.712 201.333 157.438C200.642 157.164 199.901 157.042 199.159 157.081H194.826V174.215H199.159C199.901 174.254 200.642 174.132 201.332 173.859C202.023 173.585 202.646 173.165 203.159 172.628C203.826 171.819 204.209 170.814 204.251 169.767C204.361 168.543 204.416 167.115 204.416 165.483C204.416 163.851 204.361 162.48 204.251 161.369Z" fill="white"/>
<path d="M212.454 177.428V153.877H227.5V157.085H216.026V163.965H225.817V167.141H216.026V174.219H227.5V177.428H212.454Z" fill="white"/>
</g>
<defs>
<clipPath id="clip0_48_119">
<rect width="228.2" height="177.428" fill="white"/>
</clipPath>
</defs>
</svg>
