<svg width="37" height="37" viewBox="0 0 37 37" fill="none" xmlns="http://www.w3.org/2000/svg">
<g clip-path="url(#clip0_40_8)">
<path d="M36.333 26.46C36.2697 26.5594 36.1802 26.6393 36.0743 26.6908C35.9683 26.7424 35.8502 26.7635 35.733 26.752C34.397 26.743 33.061 26.741 31.724 26.752C31.483 26.752 31.408 26.664 31.356 26.445C30.8791 24.3201 30.0351 22.2947 28.862 20.46C27.9425 19.0341 26.7404 17.8119 25.33 16.869C25.262 16.823 25.197 16.769 25.111 16.71C25.157 16.625 25.196 16.544 25.244 16.469C26.4423 14.6657 26.887 12.465 26.483 10.338C26.4665 10.2923 26.4599 10.2436 26.4636 10.1952C26.4674 10.1468 26.4814 10.0997 26.5048 10.0572C26.5282 10.0146 26.5603 9.97748 26.5992 9.94831C26.638 9.91914 26.6826 9.89856 26.73 9.88797C27.4067 9.61525 28.1405 9.51435 28.8657 9.59429C29.591 9.67422 30.2852 9.93249 30.8863 10.3461C31.4874 10.7596 31.9768 11.3156 32.3107 11.9643C32.6446 12.6131 32.8127 13.3344 32.8 14.064C32.7923 14.6985 32.646 15.3237 32.3713 15.8958C32.0967 16.4679 31.7003 16.9731 31.21 17.376C31.158 17.421 31.11 17.476 31.082 17.497C31.687 17.864 32.319 18.181 32.875 18.597C34.1975 19.6362 35.1524 21.0716 35.6 22.693C35.9 23.668 36.05 24.693 36.268 25.693C36.287 25.783 36.31 25.873 36.331 25.962L36.333 26.46Z" fill="#EF6A34"/>
<path d="M14.146 17.227C13.0149 16.3845 12.1778 15.2072 11.7536 13.8622C11.3294 12.5171 11.3397 11.0726 11.7828 9.73372C12.226 8.3948 13.0796 7.22947 14.2225 6.40311C15.3654 5.57676 16.7396 5.13136 18.15 5.13013C19.5603 5.1289 20.9352 5.5719 22.0796 6.39626C23.2239 7.22063 24.0796 8.38447 24.5251 9.72262C24.9706 11.0608 24.9833 12.5052 24.5615 13.851C24.1396 15.1968 23.3046 16.3756 22.175 17.22C22.265 17.266 22.341 17.315 22.423 17.347C24.6854 18.2468 26.5671 19.9013 27.749 22.03C28.9493 24.1274 29.719 26.4433 30.013 28.842C30.082 29.333 30.131 29.827 30.178 30.321C30.234 30.891 29.993 31.155 29.416 31.175C29.345 31.175 29.274 31.175 29.203 31.175H7.137C7.01892 31.178 6.90077 31.175 6.783 31.166C6.69019 31.1683 6.598 31.1503 6.5129 31.1132C6.42779 31.0761 6.35184 31.0209 6.29037 30.9513C6.2289 30.8817 6.18341 30.7995 6.15709 30.7105C6.13076 30.6215 6.12425 30.5278 6.138 30.436C6.28768 27.0286 7.38592 23.7308 9.309 20.914C10.448 19.2976 12.0423 18.0569 13.889 17.35C13.974 17.317 14.054 17.271 14.146 17.227Z" fill="#EF6A34"/>
<path d="M11.172 16.734C7.57204 19.099 5.87904 22.688 4.88204 26.748H4.38804C3.11004 26.748 1.83304 26.748 0.556045 26.748C0.143045 26.748 -0.0329552 26.581 0.00504476 26.194C0.122025 24.0473 0.798405 21.9685 1.96704 20.164C2.77522 18.9622 3.94139 18.0455 5.30005 17.544L5.04404 17.309C4.38947 16.7695 3.91244 16.0455 3.67505 15.2311C3.43766 14.4167 3.4509 13.5498 3.71304 12.743C3.92514 11.9346 4.37254 11.2073 4.9985 10.6534C5.62445 10.0996 6.40078 9.74409 7.22904 9.63202C8.02554 9.49376 8.84487 9.58284 9.59305 9.88902C9.64117 9.89776 9.68678 9.91696 9.72667 9.94527C9.76655 9.97358 9.79973 10.0103 9.82386 10.0528C9.84799 10.0954 9.86249 10.1427 9.86632 10.1915C9.87016 10.2402 9.86323 10.2892 9.84604 10.335C9.53769 11.8754 9.68968 13.4725 10.283 14.927C10.531 15.536 10.862 16.111 11.172 16.734Z" fill="#EF6A34"/>
</g>
<defs>
<clipPath id="clip0_40_8">
<rect width="36.333" height="26.022" fill="white" transform="translate(0 5.15399)"/>
</clipPath>
</defs>
</svg>
