<svg id="Capa_1" data-name="Capa 1" xmlns="http://www.w3.org/2000/svg" viewBox="0 0 74.202 74.19"><defs><style>.cls-1{fill:#fff;}</style></defs><path class="cls-1" d="M34.777,0h4.637c.882.107,1.767.2,2.647.323A35.788,35.788,0,0,1,62.735,10.341c9.654,9.539,13.3,21.118,10.605,34.4-2.3,11.35-8.92,19.706-19.082,25.239a32.408,32.408,0,0,1-6.843,2.739V45.29h7.922l1.2-9.284H47.417c0-2.47-.1-4.862.033-7.241a2.939,2.939,0,0,1,2.822-2.988,34.4,34.4,0,0,1,4.042-.173c.813-.022,1.627,0,2.447,0V17.248c-1.739-.1-3.445-.272-5.149-.261a26.132,26.132,0,0,0-5.323.359,10.488,10.488,0,0,0-8.452,10.231c-.125,2.506-.065,5.02-.088,7.531,0,.282,0,.564,0,.928h-7.9v9.3h7.849v28.8a2.532,2.532,0,0,1-.267.042c-.193.007-.386.009-.579.007a35.448,35.448,0,0,1-15.334-3.452Q4.305,62.369.579,43.561C.31,42.193.189,40.8,0,39.414V34.777c.059-.475.123-.949.175-1.425A36.515,36.515,0,0,1,9.532,12.294,36.305,36.305,0,0,1,30.776.559C32.1.33,33.443.184,34.777,0Z"/></svg>