<svg width="86" height="86" viewBox="0 0 86 86" fill="none" xmlns="http://www.w3.org/2000/svg">
<g clip-path="url(#clip0_46_111)">
<path d="M40.3065 0H45.6808C46.703 0.124033 47.7287 0.231837 48.7486 0.374417C57.7946 1.5065 66.2157 5.58778 72.7098 11.9871C83.8987 23.0446 88.1244 36.4668 85.0009 51.8631C82.3352 65.0199 74.6627 74.7061 62.8849 81.1198C60.3706 82.4764 57.7097 83.5416 54.9539 84.2948V52.4995H64.1355L65.5263 41.7376H54.9562C54.9562 38.8745 54.8403 36.1017 54.9945 33.344C54.9789 32.4537 55.3125 31.5926 55.9238 30.9453C56.5351 30.2979 57.3756 29.9156 58.2652 29.8803C59.8214 29.7216 61.3857 29.6547 62.9498 29.6798C63.8921 29.6543 64.8355 29.6798 65.7859 29.6798V19.9936C63.7704 19.8777 61.7932 19.6783 59.8182 19.6911C57.753 19.6189 55.6857 19.7584 53.6489 20.1072C50.8993 20.6514 48.4222 22.1292 46.6371 24.2905C44.8519 26.4517 43.8684 29.1636 43.853 31.9669C43.7081 34.8718 43.7777 37.786 43.751 40.6967C43.751 41.0236 43.751 41.3505 43.751 41.7724H34.5949V52.5528H43.6919V85.9374C43.5897 85.9591 43.4864 85.9754 43.3825 85.9861C43.1588 85.9942 42.9351 85.9965 42.7114 85.9942C36.5626 86.0073 30.4893 84.6399 24.9393 81.9927C11.6394 75.5291 3.55001 65.0299 0.67106 50.4953C0.359289 48.9095 0.219051 47.2948 0 45.6882V40.313C0.0683809 39.7624 0.142557 39.2129 0.202825 38.6612C1.08873 29.567 4.89315 21.0038 11.0476 14.251C17.4516 7.02601 26.1449 2.22314 35.6693 0.647985C37.2038 0.382531 38.7604 0.21329 40.3065 0Z" fill="#EC5A2A"/>
</g>
<defs>
<clipPath id="clip0_46_111">
<rect width="86" height="86" fill="white"/>
</clipPath>
</defs>
</svg>
