<svg width="86" height="86" viewBox="0 0 86 86" fill="none" xmlns="http://www.w3.org/2000/svg">
<g clip-path="url(#clip0_46_113)">
<path d="M30.1008 0H55.8619C57.872 0.11598 59.8833 0.216882 61.8946 0.335181C65.4029 0.46056 68.8584 1.22752 72.0894 2.59794C80.0126 6.15503 84.1885 12.4933 85.4864 20.896C85.7188 22.3806 85.835 23.8825 86 25.3775V59.9974C85.9488 60.3813 85.8942 60.7652 85.8478 61.1502C85.6154 63.0372 85.5271 64.952 85.1413 66.8065C83.4263 75.0249 78.7786 80.8633 70.8635 83.9402C67.0766 85.2896 63.075 85.9388 59.0549 85.8562C49.9372 85.949 40.8184 86.0348 31.7008 85.9861C27.2109 86.1381 22.7186 85.7656 18.3154 84.8762C14.9223 84.1702 11.7435 82.6766 9.0361 80.5164C6.32875 78.3563 4.16899 75.5901 2.73166 72.442C0.935832 68.3484 0.0559524 63.9131 0.15334 59.4453C0.0545764 50.1484 -0.0488351 40.8503 0.0255282 31.5546C0.0340536 27.6352 0.314751 23.7212 0.865601 19.8406C1.25308 16.9286 2.22608 14.1247 3.72618 11.5974C5.22629 9.07005 7.22256 6.87134 9.59516 5.13326C13.788 2.17188 18.7612 0.507637 23.895 0.347939C25.9621 0.197165 28.0326 0.11598 30.1008 0ZM43.0935 78.4416V78.3094C45.3662 78.3094 47.6413 78.3767 49.9117 78.2955C54.7848 78.1204 59.6951 78.1795 64.5194 77.5741C71.1424 76.746 75.6437 72.9488 77.2727 66.3635C77.8893 63.6619 78.2011 60.8998 78.2023 58.129C78.3518 49.4784 78.3948 40.8252 78.3312 32.1692C78.3314 28.67 78.1211 25.1739 77.7015 21.6998C77.4334 18.5122 76.1035 15.5061 73.924 13.161C71.7446 10.8159 68.8411 9.26686 65.6767 8.7611C62.6985 8.22164 59.6777 7.94994 56.6509 7.94924C49.1053 7.82398 41.5563 7.84718 34.0096 7.87153C29.6895 7.73988 25.366 7.97773 21.0866 8.58249C14.5554 9.73068 10.075 13.87 8.73998 20.3695C8.20671 23.1997 7.92983 26.0722 7.91269 28.952C7.76512 35.8377 7.71051 42.7315 7.78487 49.6195C7.83948 54.4907 7.96846 59.3676 8.43555 64.2074C8.59143 66.4864 9.29483 68.6944 10.4863 70.6448C11.6777 72.5951 13.3221 74.2303 15.2805 75.4122C18.0743 77.0591 21.2547 77.9394 24.4992 77.9638C30.6969 78.1865 36.8958 78.2862 43.0935 78.4416Z" fill="#EC5A2A"/>
<path d="M20.9077 43.011C20.9123 38.6409 22.2147 34.3702 24.6503 30.7388C27.0858 27.1073 30.5453 24.278 34.5913 22.6085C38.6374 20.9389 43.0885 20.5042 47.3821 21.359C51.6756 22.2139 55.619 24.3201 58.7136 27.4113C61.8083 30.5026 63.9155 34.4402 64.7688 38.7266C65.622 43.0129 65.1832 47.4555 63.5076 51.4929C61.8321 55.5303 58.9951 58.9814 55.3551 61.4098C51.7152 63.8382 47.4357 65.1351 43.0575 65.1365C40.1477 65.1354 37.2666 64.5623 34.5787 63.4498C31.8907 62.3373 29.4487 60.7072 27.3919 58.6527C25.3351 56.5982 23.7038 54.1594 22.5913 51.4756C21.4787 48.7918 20.9066 45.9155 20.9077 43.011V43.011ZM28.7089 43.011C28.705 45.8445 29.5432 48.6155 31.1176 50.9733C32.6919 53.3311 34.9316 55.1697 37.5532 56.2566C40.1748 57.3434 43.0604 57.6295 45.845 57.0788C48.6296 56.5281 51.1879 55.1652 53.1962 53.1627C55.2045 51.1602 56.5726 48.608 57.1273 45.8291C57.6819 43.0502 57.3983 40.1696 56.3122 37.5516C55.2262 34.9337 53.3865 32.6962 51.0261 31.1223C48.6656 29.5483 45.8904 28.7087 43.0517 28.7096C41.1679 28.705 39.3017 29.0718 37.5602 29.7889C35.8187 30.5061 34.2363 31.5594 32.9037 32.8885C31.5711 34.2176 30.5145 35.7963 29.7947 37.534C29.0748 39.2717 28.7058 41.1341 28.7089 43.0145V43.011Z" fill="#EC5A2A"/>
<path d="M66.181 14.915C67.5429 14.9507 68.8353 15.523 69.7759 16.5067C70.7164 17.4905 71.2288 18.8058 71.201 20.1653C71.1732 21.5249 70.6076 22.8183 69.6276 23.7629C68.6476 24.7076 67.3329 25.2267 65.9707 25.207C65.291 25.1972 64.62 25.0533 63.9963 24.7837C63.3725 24.5141 62.8083 24.124 62.3361 23.6359C61.8639 23.1479 61.4931 22.5714 61.2449 21.9398C60.9967 21.3082 60.876 20.6338 60.8899 19.9554C60.9038 19.2771 61.0518 18.6081 61.3256 17.9871C61.5994 17.3661 61.9935 16.8053 62.4853 16.3368C62.977 15.8684 63.5567 15.5016 64.1909 15.2576C64.8252 15.0136 65.5015 14.8972 66.181 14.915V14.915Z" fill="#EC5A2A"/>
</g>
<defs>
<clipPath id="clip0_46_113">
<rect width="86" height="86" fill="white"/>
</clipPath>
</defs>
</svg>
