<svg id="Capa_1" data-name="Capa 1" xmlns="http://www.w3.org/2000/svg" viewBox="0 0 74.015 74.151"><defs><style>.cls-1{fill:#fff;}</style></defs><path class="cls-1" d="M25.906,0H48.077c1.73.1,3.461.187,5.192.289A24.694,24.694,0,0,1,62.043,2.24c6.819,3.067,10.413,8.532,11.53,15.777.2,1.28.3,2.575.442,3.864v29.85c-.044.331-.091.662-.131.994-.2,1.627-.276,3.278-.608,4.877C71.8,64.688,67.8,69.722,60.988,72.375a28.484,28.484,0,0,1-10.163,1.652c-7.847.08-15.695.154-23.542.112a49.6,49.6,0,0,1-11.52-.957A19,19,0,0,1,2.351,62.461,26.5,26.5,0,0,1,.132,51.255C.047,43.239-.042,35.222.022,27.207a73.126,73.126,0,0,1,.723-10.1A18.8,18.8,0,0,1,8.258,4.426,22.521,22.521,0,0,1,20.565.3C22.344.17,24.126.1,25.906,0ZM37.088,67.634l0-.114c1.956,0,3.914.058,5.868-.012,4.194-.151,8.42-.1,12.572-.622,5.7-.714,9.574-3.988,10.976-9.666a32.023,32.023,0,0,0,.8-7.1q.193-11.188.111-22.383a75.391,75.391,0,0,0-.542-9.027A12.344,12.344,0,0,0,56.524,7.554a43.563,43.563,0,0,0-7.768-.7c-6.494-.108-12.991-.088-19.486-.067A65.157,65.157,0,0,0,18.148,7.4c-5.621.99-9.477,4.559-10.626,10.163a41.366,41.366,0,0,0-.712,7.4C6.683,30.9,6.636,36.844,6.7,42.783c.047,4.2.158,8.405.56,12.578a12.266,12.266,0,0,0,5.891,9.661,15.837,15.837,0,0,0,7.934,2.2C26.419,67.414,31.754,67.5,37.088,67.634Z"/><path class="cls-1" d="M17.994,37.085A19.057,19.057,0,1,1,37.057,56.162,19.07,19.07,0,0,1,17.994,37.085Zm6.714,0A12.348,12.348,0,1,0,37.052,24.754,12.314,12.314,0,0,0,24.708,37.088Z"/><path class="cls-1" d="M56.958,12.86a4.438,4.438,0,0,1-.181,8.874,4.438,4.438,0,1,1,.181-8.874Z"/></svg>