<svg id="Capa_1" data-name="Capa 1" xmlns="http://www.w3.org/2000/svg" viewBox="0 0 433.665 170.538"><defs><style>.cls-1{fill:#2a3b8b;}.cls-2{fill:#27a4dc;}.cls-3{fill:#d51a5c;}.cls-4{fill:#211151;}.cls-5{fill:#ec5a2a;}.cls-6{fill:#c9090f;}.cls-7{fill:#58595b;}</style></defs><polygon class="cls-1" points="194.011 103.448 191.178 103.448 191.178 75.585 207.984 75.585 207.984 78.1 194.011 78.1 194.011 87.787 207.003 87.787 207.003 90.267 194.011 90.267 194.011 103.448"/><polygon class="cls-1" points="214.165 100.933 229.08 100.933 229.08 103.448 211.33 103.448 211.33 75.585 228.608 75.585 228.608 78.1 214.165 78.1 214.165 87.708 227.664 87.708 227.664 90.186 214.165 90.186 214.165 100.933"/><path class="cls-1" d="M235.5,103.448h-2.834V75.585h8.183c5.514,0,9.527,2.008,9.527,7.436,0,4.129-3.067,6.731-7.126,7.165l8.151,13.262h-3.463l-7.716-13.025H235.5Zm0-15.467h4.916c4.529,0,7.126-1.655,7.126-4.96,0-3.657-2.8-5-7-5H235.5Z"/><polygon class="cls-1" points="274.024 99.313 274.104 99.313 274.104 75.585 276.935 75.585 276.935 103.448 273.398 103.448 257.179 79.477 257.099 79.477 257.099 103.448 254.27 103.448 254.27 75.585 257.815 75.585 274.024 99.313"/><path class="cls-1" d="M282.172,103.448h-3.106l12.041-27.863h2.756l11.961,27.863h-3.146l-3.07-7.327H285.2Zm4.094-9.92h12.278l-6.138-14.8Zm7.322-20.149h-2.321L295.2,67.71h3.577Z"/><polygon class="cls-1" points="327.712 99.313 327.793 99.313 327.793 75.585 330.625 75.585 330.625 103.448 327.08 103.448 310.867 79.477 310.785 79.477 310.785 103.448 307.95 103.448 307.95 75.585 311.495 75.585 327.712 99.313"/><path class="cls-1" d="M336.052,75.585H345.3c6.972,0,14.647,4.64,14.647,13.932s-7.675,13.931-14.647,13.931h-9.246Zm2.837,25.348h5.626c8.385,0,12.439-5.669,12.439-11.416S352.9,78.1,344.515,78.1h-5.626Z"/><polygon class="cls-1" points="366.712 100.933 381.628 100.933 381.628 103.448 363.875 103.448 363.875 75.585 381.156 75.585 381.156 78.1 366.712 78.1 366.712 87.708 380.213 87.708 380.213 90.186 366.712 90.186 366.712 100.933"/><polygon class="cls-1" points="402.566 77.945 386.311 100.933 402.802 100.933 402.802 103.448 382.733 103.448 382.733 101.095 399.02 78.1 383.167 78.1 383.167 75.588 402.566 75.588 402.566 77.945"/><path class="cls-1" d="M204.205,140.843A14.645,14.645,0,1,1,218.727,126.2a14.185,14.185,0,0,1-14.522,14.645m0-26.808c-7.16,0-11.53,5.666-11.53,12.163s4.37,12.116,11.53,12.116,11.537-5.62,11.537-12.116-4.373-12.163-11.537-12.163"/><path class="cls-1" d="M222.508,129.734v-17.47h2.834v17.16c0,4.488,1.925,8.89,7.595,8.89s7.6-4.4,7.6-8.89v-17.16h2.833v17.47c0,4.65-2.088,11.109-10.432,11.109s-10.429-6.459-10.429-11.109"/><polygon class="cls-1" points="251.476 137.613 264.461 137.613 264.461 140.134 248.642 140.134 248.642 112.264 251.476 112.264 251.476 137.613"/><polygon class="cls-1" points="271.899 140.134 269.065 140.134 269.065 114.787 259.738 114.787 259.738 112.264 281.229 112.264 281.229 114.787 271.899 114.787 271.899 140.134"/><path class="cls-1" d="M295.278,140.843A14.644,14.644,0,1,1,309.8,126.2a14.183,14.183,0,0,1-14.524,14.645m0-26.808c-7.163,0-11.533,5.666-11.533,12.163s4.37,12.116,11.533,12.116,11.535-5.62,11.535-12.116-4.37-12.163-11.535-12.163"/><polygon class="cls-1" points="333.494 135.999 333.575 135.999 333.575 112.264 336.408 112.264 336.408 140.134 332.866 140.134 316.649 116.162 316.568 116.162 316.568 140.134 313.735 140.134 313.735 112.264 317.277 112.264 333.494 135.999"/><rect class="cls-2" y="58.594" width="55.962" height="58.586"/><rect class="cls-2" x="114.556" y="58.594" width="55.97" height="58.586"/><rect class="cls-3" x="55.962" y="117.18" width="58.588" height="53.358"/><rect class="cls-4" x="55.962" y="58.594" width="58.588" height="58.586"/><polygon class="cls-5" points="55.963 0 55.963 0.008 114.552 0.008 114.552 58.594 170.521 58.594 207.435 58.594 207.435 0 55.963 0"/><rect class="cls-6" x="55.966" y="0.008" width="58.59" height="58.582"/><path class="cls-7" d="M191.392,157.24h2.316v12.965h-2.316Z"/><path class="cls-7" d="M198.374,157.24h3.062l6.279,9.631h.035V157.24h2.3v12.965H207.13l-6.411-9.94h-.039v9.94h-2.306Z"/><path class="cls-7" d="M214.782,157.24h3.06l6.281,9.631h.042V157.24h2.3v12.965h-2.925l-6.409-9.94h-.043v9.94h-2.3Z"/><path class="cls-7" d="M237.346,156.919a6.43,6.43,0,0,1,6.9,6.79c0,4.044-2.856,6.755-6.9,6.829a6.81,6.81,0,1,1,0-13.619Zm.012,11.539c2.7,0,4.473-2.057,4.473-4.824a4.465,4.465,0,1,0-8.924,0C232.907,166.4,234.684,168.458,237.358,168.458Z"/><path class="cls-7" d="M246.771,157.24h2.663l3.53,9.8,3.646-9.8h2.484l-5.233,12.965h-2Z"/><path class="cls-7" d="M265.5,157.24h2l5.578,12.965h-2.633l-1.211-2.962h-5.619l-1.175,2.962H259.86Zm2.933,8.017-2-5.262-2.029,5.262Z"/><path class="cls-7" d="M285.267,160.284A3.571,3.571,0,0,0,282.536,159a4.4,4.4,0,0,0-4.449,4.639c0,2.767,1.777,4.824,4.449,4.824a3.607,3.607,0,0,0,2.906-1.587l1.908,1.36a5.745,5.745,0,0,1-4.833,2.307,6.81,6.81,0,1,1,0-13.619,5.617,5.617,0,0,1,4.543,2.053Z"/><path class="cls-7" d="M290.682,157.24h2.31v12.965h-2.31Z"/><path class="cls-7" d="M303.814,156.919a6.433,6.433,0,0,1,6.906,6.79c0,4.044-2.857,6.755-6.906,6.829a6.81,6.81,0,1,1,0-13.619Zm.019,11.539c2.688,0,4.465-2.057,4.465-4.824a4.459,4.459,0,1,0-8.91,0C299.388,166.4,301.161,168.458,303.833,168.458Zm.964-14.729h2.494l-2.582,2.637h-1.718Z"/><path class="cls-7" d="M314.743,157.24h3.066l6.277,9.631h.033V157.24h2.314v12.965H323.5l-6.415-9.94h-.036v9.94h-2.31Z"/><path class="cls-7" d="M374.532,160.026A2.744,2.744,0,0,0,372.258,159c-1.062,0-2.122.478-2.122,1.677,0,2.594,6.156,1.121,6.156,5.729,0,2.782-2.194,4.137-4.745,4.137a5.368,5.368,0,0,1-4.244-1.755l1.734-1.685a3.089,3.089,0,0,0,2.567,1.36c1.062,0,2.27-.588,2.27-1.783,0-2.841-6.153-1.211-6.153-5.846,0-2.668,2.372-3.91,4.778-3.91a5.3,5.3,0,0,1,3.72,1.328Z"/><path class="cls-7" d="M384.712,157.24h2l5.587,12.965h-2.642l-1.207-2.962h-5.627l-1.167,2.962h-2.584Zm2.931,8.017L385.652,160l-2.029,5.262Z"/><path class="cls-7" d="M395.569,157.24h2.31v10.889H403.4v2.076h-7.826Z"/><path class="cls-7" d="M417.3,165.441a5.225,5.225,0,0,1-10.446,0v-8.2h2.306v8.134a2.913,2.913,0,1,0,5.824,0V157.24H417.3Z"/><path class="cls-7" d="M421.956,157.24h5.107c3.405,0,6.6,2.092,6.6,6.493,0,4.423-3.763,6.472-6.872,6.472h-4.837Zm4.03,10.889c2.893,0,5.252-1.258,5.252-4.4,0-3.162-2.047-4.4-4.867-4.4h-2.106v8.8Z"/><path class="cls-7" d="M347.644,157.24h3.06l6.275,9.631h.039V157.24h2.316v12.965H356.4l-6.412-9.94h-.039v9.94h-2.3Z"/><polygon class="cls-7" points="337.396 168.027 337.396 164.442 343.136 164.442 343.136 162.404 337.396 162.404 337.396 159.305 343.538 159.305 343.538 157.24 335.194 157.24 335.194 170.084 343.74 170.084 343.74 168.027 337.396 168.027"/></svg>