<svg width="224" height="78" viewBox="0 0 224 78" fill="none" xmlns="http://www.w3.org/2000/svg">
<g clip-path="url(#clip0_92_3)">
<path d="M27.9579 1.863C25.5733 1.09124 22.3437 0.668181 18.864 0.668181C16.714 0.656802 14.5672 0.833018 12.4485 1.19479C5.1888 2.57325 0.807734 6.83434 0.729126 12.6071V48.8747C0.809074 54.1169 4.6247 58.2227 10.933 59.8565C13.5341 60.465 16.201 60.7536 18.8733 60.7158C21.6778 60.758 24.4759 60.4399 27.1978 59.7693C33.364 58.0275 36.9005 54.0217 36.9005 48.7791V47.6082L30.5918 47.7321V48.8579C30.5918 52.0025 26.9954 53.3363 25.4514 53.7633C23.2964 54.2896 21.0819 54.5386 18.8626 54.5041V54.5041C16.7443 54.5315 14.6302 54.3086 12.565 53.8403C10.9035 53.4009 7.03878 52.0353 7.03878 48.857V12.6071C7.03878 8.88987 12.067 7.62424 13.599 7.32731C15.4039 7.0112 17.2338 6.85555 19.0667 6.86222C21.418 6.81593 23.7629 7.11888 26.0236 7.76098C27.7293 8.33627 30.5909 9.73598 30.5909 12.6071V13.755H36.8996V12.6071C36.8996 7.61628 33.7289 3.80215 27.9579 1.863Z" fill="#F26A34"/>
<path d="M52.8384 1.04742H46.468V61.0969H52.8384V1.04742Z" fill="#F26A34"/>
<path d="M84.0271 1.42932H62.931V60.7158H83.4518C91.4783 60.7158 100.117 56.8977 100.117 48.515V13.5479C100.117 5.59172 92.0219 1.42932 84.0271 1.42932ZM93.3578 49.862C92.3359 52.9008 87.5068 54.2873 83.4513 54.2873H69.422V7.78089H83.9449C87.8503 7.78089 93.628 9.61428 93.628 13.5497C93.628 14.6268 93.6342 16.2154 93.6418 18.1391L93.6463 19.3109C93.6843 28.7124 93.7638 48.2778 93.3582 49.862H93.3578Z" fill="#F26A34"/>
<path d="M5.01953 77.465H3.80557L0.424072 67.271H2.04269L4.41255 74.6873L6.78241 67.271H8.42961L5.01953 77.465Z" fill="#F26A34"/>
<path d="M9.48328 77.465V67.271H11.0465V77.465H9.48328Z" fill="#F26A34"/>
<path d="M13.3717 77.465V67.271H14.9323V76.0773H19.8899V77.4664L13.3717 77.465Z" fill="#F26A34"/>
<path d="M21.3049 77.465V67.271H22.865V76.0773H27.8227V77.4664L21.3049 77.465Z" fill="#F26A34"/>
<path d="M35.148 77.465L34.4401 75.4175H30.3793L29.6713 77.465H28.0094L31.7808 67.271H33.0381L36.8099 77.465H35.148ZM32.4459 69.5881L30.842 74.1155H34.0064L32.4459 69.5881Z" fill="#F26A34"/>
<path d="M46.9249 77.465L46.2169 75.4175H42.1561L41.4482 77.465H39.7863L43.5581 67.271H44.8149L48.5868 77.465H46.9249ZM44.2227 69.5881L42.6188 74.1155H45.7833L44.2227 69.5881Z" fill="#F26A34"/>
<path d="M49.6851 77.465V67.271H51.2438V76.0773H56.2015V77.4664L49.6851 77.465Z" fill="#F26A34"/>
<path d="M57.6183 77.465V67.271H59.1784V76.0773H64.1361V77.4664L57.6183 77.465Z" fill="#F26A34"/>
<path d="M65.551 77.465V67.271H72.1264V68.6596H67.112V71.6374H71.3872V73.0119H67.1102V76.0755H72.1246V77.4646L65.551 77.465Z" fill="#F26A34"/>
<path d="M80.2181 77.465L75.4641 70.2917V77.465H73.9036V67.271H75.3328L80.0868 74.4297V67.271H81.6474V77.465H80.2181Z" fill="#F26A34"/>
<path d="M91.28 73.4274C91.2756 73.8015 91.2441 74.1748 91.1857 74.5444C91.1289 74.9038 91.027 75.2548 90.8825 75.5892C90.7319 75.9322 90.5159 76.2432 90.2465 76.5052C89.9168 76.831 89.5166 77.0783 89.0763 77.2283C88.5971 77.3901 88.0938 77.47 87.5876 77.4646H83.9752V67.271H87.5876C88.0938 67.2656 88.5971 67.3455 89.0763 67.5073C89.5167 67.657 89.9168 67.9042 90.2465 68.23C90.512 68.4873 90.7276 68.7907 90.8825 69.1252C91.0269 69.4447 91.1288 69.7815 91.1857 70.1271C91.2439 70.4799 91.2754 70.8365 91.28 71.194C91.2844 71.5569 91.2868 71.9243 91.2871 72.2963C91.2874 72.6683 91.285 73.0454 91.28 73.4274ZM89.6542 70.5138C89.6274 70.0838 89.46 69.6742 89.1772 69.3469C88.9529 69.1143 88.6805 68.9325 88.3787 68.8139C88.0769 68.6953 87.7528 68.6427 87.4286 68.6597H85.5358V76.0759H87.4286C87.7528 76.093 88.077 76.0404 88.3788 75.9218C88.6806 75.8032 88.9529 75.6213 89.1772 75.3887C89.4688 75.0385 89.6364 74.6033 89.6542 74.1496C89.7025 73.6186 89.7264 73.0005 89.7261 72.2954C89.7258 71.5904 89.702 70.9965 89.6547 70.5138H89.6542Z" fill="#F26A34"/>
<path d="M93.2377 77.465V67.271H99.8126V68.6596H94.7982V71.6374H99.0757V73.0119H94.7982V76.0755H99.8126V77.4646L93.2377 77.465Z" fill="#F26A34"/>
<path d="M113.733 0.666443H112.832V77.465H113.733V0.666443Z" fill="#595A5C"/>
<path d="M130.042 27.765C129.557 27.7686 129.077 27.6768 128.629 27.4948C128.18 27.3129 127.773 27.0444 127.43 26.7051C126.476 25.7608 126.461 24.8292 126.461 22.5011C126.461 20.1601 126.476 19.2459 127.43 18.2971C127.773 17.9577 128.18 17.689 128.629 17.5067C129.077 17.3244 129.557 17.2321 130.042 17.2351C131.918 17.2351 133.241 18.3989 133.592 20.2588H132.785C132.477 18.8206 131.451 17.932 130.042 17.932C129.674 17.9287 129.31 17.9978 128.969 18.1353C128.629 18.2728 128.32 18.476 128.059 18.733C127.312 19.4747 127.253 20.288 127.253 22.498C127.253 24.708 127.312 25.5214 128.059 26.2644C128.427 26.6218 128.887 26.8725 129.388 26.9895C129.89 27.1064 130.414 27.085 130.904 26.9277C131.394 26.7703 131.832 26.483 132.169 26.0968C132.505 25.7106 132.729 25.2404 132.816 24.7372H133.592C133.241 26.5958 131.89 27.7605 130.042 27.7605" fill="#595A5C"/>
<path d="M136.319 17.3275H142.659V18.0258H137.111V22.1112H141.837V22.8086H137.111V26.9808H142.659V27.6782H136.319V17.3275Z" fill="#595A5C"/>
<path d="M145.886 18.6803V27.6791H145.094V17.3275H145.886L151.916 26.2966V17.3275H152.707V27.6791H151.916L145.886 18.6803Z" fill="#595A5C"/>
<path d="M158.664 27.6787H157.871V18.0267H154.761V17.3284H161.791V18.0267H158.664V27.6787Z" fill="#595A5C"/>
<path d="M167.511 22.9109H164.634V27.6782H163.841V17.3275H167.816C169.519 17.3275 170.812 18.3011 170.812 20.1052C170.848 20.7876 170.618 21.4576 170.17 21.977C169.722 22.4963 169.09 22.8253 168.404 22.8958L170.929 27.6782H170.005L167.511 22.9109ZM167.717 18.0258H164.635V22.213H167.717C169.067 22.213 170.02 21.5585 170.02 20.1203C170.02 18.6821 169.067 18.0258 167.717 18.0258Z" fill="#595A5C"/>
<path d="M179.264 26.7051C178.567 27.3848 177.628 27.7659 176.651 27.7659C175.673 27.7659 174.735 27.3848 174.038 26.7051C173.083 25.7603 173.07 24.8288 173.07 22.5011C173.07 20.1606 173.083 19.2463 174.038 18.2993C174.734 17.619 175.673 17.2377 176.651 17.2377C177.629 17.2377 178.567 17.619 179.264 18.2993C180.218 19.2463 180.231 20.1606 180.231 22.5011C180.231 24.8279 180.218 25.7594 179.264 26.7051ZM178.631 18.7396C178.102 18.2262 177.391 17.9387 176.65 17.9387C175.909 17.9387 175.198 18.2262 174.669 18.7396C173.921 19.4813 173.865 20.2947 173.865 22.5042C173.865 24.7137 173.921 25.5275 174.669 26.271C175.199 26.7836 175.91 27.0707 176.65 27.0707C177.391 27.0707 178.102 26.7836 178.631 26.271C179.381 25.5275 179.44 24.7159 179.44 22.5042C179.44 20.2925 179.381 19.4813 178.631 18.7396Z" fill="#595A5C"/>
<path d="M192.907 26.7338C192.558 27.0573 192.147 27.3076 191.699 27.47C191.25 27.6323 190.773 27.7033 190.296 27.6786H186.789V17.3271H190.296C190.773 17.3025 191.25 17.3737 191.699 17.5363C192.148 17.699 192.559 17.9498 192.907 18.2736C193.965 19.3193 193.919 20.9633 193.919 22.3577C193.919 23.7521 193.964 25.6864 192.907 26.7338ZM192.349 18.825C192.052 18.5441 191.699 18.3279 191.313 18.1901C190.926 18.0523 190.515 17.9961 190.105 18.0249H187.582V26.9803H190.104C190.513 27.0098 190.925 26.9539 191.311 26.8162C191.698 26.6784 192.051 26.462 192.347 26.1807C193.17 25.3222 193.126 23.5198 193.126 22.3577C193.126 21.1956 193.17 19.6822 192.347 18.825" fill="#595A5C"/>
<path d="M196.735 17.3275H203.074V18.0258H197.528V22.1112H202.252V22.8086H197.528V26.9808H203.074V27.6782H196.735V17.3275Z" fill="#595A5C"/>
<path d="M127.253 33.1823H126.461V43.5325H127.253V33.1823Z" fill="#595A5C"/>
<path d="M138.462 34.9993L135.294 42.0793H134.502L131.273 34.9993V43.5339H130.48V33.1837H131.273L134.913 41.1628L138.462 33.1837H139.256V43.5339H138.462V34.9993Z" fill="#595A5C"/>
<path d="M147.718 41.0182H142.849L141.941 43.5326H141.092L144.935 33.1824H145.638L149.484 43.5326H148.632L147.718 41.0182ZM143.097 40.3207H147.47L145.283 34.2298L143.097 40.3207ZM144.594 32.1942L146.02 30.0577H147.003L145.449 32.1942H144.594Z" fill="#595A5C"/>
<path d="M157.081 42.4307C156.733 42.808 156.309 43.1089 155.836 43.314C155.364 43.5192 154.853 43.6241 154.337 43.622C153.852 43.625 153.372 43.5327 152.923 43.3504C152.475 43.1681 152.067 42.8994 151.724 42.5599C150.771 41.6169 150.757 40.6854 150.757 38.3599C150.757 36.0189 150.771 35.1029 151.724 34.1559C152.067 33.8165 152.475 33.5478 152.923 33.3655C153.372 33.1832 153.852 33.0909 154.337 33.0938C155.201 33.0786 156.041 33.3778 156.698 33.9348C157.355 34.4919 157.782 35.2682 157.9 36.1167H157.111C157.025 35.6138 156.801 35.1439 156.464 34.7581C156.127 34.3722 155.69 34.0851 155.2 33.9279C154.71 33.7707 154.186 33.7494 153.684 33.8663C153.183 33.9831 152.724 34.2337 152.356 34.5909C151.607 35.3339 151.548 36.1459 151.548 38.3572C151.548 40.5685 151.607 41.381 152.356 42.1187C152.616 42.3756 152.925 42.5787 153.265 42.7161C153.605 42.8536 153.97 42.9226 154.337 42.9192C154.751 42.9211 155.16 42.8323 155.536 42.659C155.911 42.4857 156.243 42.2323 156.508 41.9169C156.965 41.3331 157.189 40.6032 157.138 39.8662V38.9369H154.337V38.2386H157.931V39.9251C157.931 41.0155 157.712 41.7718 157.083 42.4258" fill="#595A5C"/>
<path d="M160.718 33.1828H167.057V33.8802H161.508V37.9665H166.235V38.6635H161.508V42.8356H167.057V43.5339H160.718V33.1828Z" fill="#595A5C"/>
<path d="M170.283 34.5347V43.5339H169.49V33.1837H170.283L176.315 42.1523V33.1837H177.106V43.5339H176.315L170.283 34.5347Z" fill="#595A5C"/>
<path d="M180.332 33.1828H186.672V33.8802H181.126V37.9665H185.85V38.6635H181.126V42.8356H186.672V43.5339H180.332V33.1828Z" fill="#595A5C"/>
<path d="M191.718 43.6198C191.073 43.6573 190.428 43.5545 189.827 43.3187C189.227 43.0829 188.685 42.7197 188.241 42.2546L188.799 41.7014C189.168 42.1141 189.626 42.4385 190.139 42.6501C190.652 42.8617 191.207 42.9549 191.762 42.9228C193.42 42.9228 194.447 42.1386 194.447 40.7849C194.468 40.5158 194.427 40.2455 194.328 39.9939C194.229 39.7424 194.074 39.5161 193.875 39.3317C193.446 38.9888 192.915 38.7949 192.363 38.7794L191.146 38.5905C190.464 38.522 189.817 38.2594 189.282 37.8342C189.008 37.5997 188.792 37.3065 188.65 36.9767C188.508 36.647 188.443 36.2894 188.462 35.9313C188.462 34.1856 189.695 33.0965 191.704 33.0965C192.256 33.0746 192.806 33.1623 193.322 33.3544C193.839 33.5465 194.311 33.8392 194.712 34.2152L194.199 34.7237C193.867 34.3956 193.47 34.1405 193.032 33.9752C192.595 33.8099 192.127 33.738 191.659 33.7643C190.134 33.7643 189.237 34.5776 189.237 35.9008C189.219 36.1524 189.258 36.4048 189.352 36.6392C189.447 36.8735 189.593 37.0836 189.781 37.2536C190.24 37.5898 190.774 37.8096 191.338 37.8939L192.468 38.0665C193.45 38.1993 193.906 38.3878 194.33 38.7511C194.624 38.9967 194.858 39.3044 195.015 39.6516C195.173 39.9988 195.249 40.3766 195.24 40.7571C195.24 42.5143 193.907 43.6198 191.719 43.6198" fill="#595A5C"/>
<path d="M133.54 55.4025C133.535 55.7993 133.5 56.1952 133.437 56.5871C133.376 56.9693 133.276 57.3444 133.138 57.7067C133.008 58.0538 132.804 58.3691 132.54 58.6311C132.223 58.9437 131.84 59.1831 131.418 59.3321C130.945 59.4969 130.446 59.5775 129.944 59.5702H126.46V49.285H129.944C130.418 49.2593 130.893 49.3292 131.339 49.4905C131.785 49.6518 132.193 49.9012 132.539 50.2236C132.796 50.475 132.999 50.7747 133.137 51.1051C133.273 51.4329 133.373 51.7741 133.436 52.1229C133.499 52.4808 133.534 52.8433 133.538 53.2067C133.543 53.5775 133.545 53.9361 133.545 54.2824C133.546 54.6288 133.544 55.0021 133.54 55.4025ZM132.752 53.3668C132.747 53.0478 132.723 52.7294 132.679 52.4132C132.637 52.1074 132.561 51.807 132.453 51.5175C132.351 51.2406 132.192 50.9874 131.987 50.7736C131.706 50.4781 131.352 50.2613 130.959 50.1453C130.568 50.0335 130.163 49.9775 129.757 49.9789H127.248V58.8776H129.756C130.162 58.8792 130.567 58.8233 130.958 58.7117C131.351 58.5957 131.705 58.3789 131.986 58.0833C132.198 57.858 132.357 57.5892 132.452 57.296C132.562 56.9722 132.637 56.6381 132.678 56.299C132.722 55.949 132.746 55.597 132.751 55.2445C132.756 54.8931 132.758 54.5729 132.758 54.2838C132.759 53.9946 132.757 53.6887 132.752 53.366V53.3668Z" fill="#595A5C"/>
<path d="M136.346 59.5702V49.285H137.132V59.5702H136.346Z" fill="#595A5C"/>
<path d="M146.45 59.5702L145.546 57.0712H140.705L139.801 59.5702H138.955L142.776 49.285H143.475L147.295 59.5702H146.45ZM143.126 50.3249L140.953 56.3778H145.298L143.126 50.3249Z" fill="#595A5C"/>
<path d="M155.504 57.388C155.371 57.7938 155.147 58.1643 154.848 58.4713C154.508 58.8467 154.09 59.1449 153.623 59.3453C153.164 59.5439 152.67 59.6495 152.169 59.6557C151.668 59.6619 151.171 59.5687 150.707 59.3816C150.265 59.202 149.863 58.9368 149.526 58.6015C149.309 58.3914 149.125 58.1504 148.979 57.8863C148.841 57.6203 148.743 57.3357 148.688 57.0415C148.619 56.6745 148.583 56.3023 148.578 55.929C148.569 55.5057 148.564 55.0049 148.564 54.4267C148.564 53.8484 148.568 53.35 148.578 52.9314C148.583 52.5602 148.62 52.1901 148.688 51.8251C148.744 51.5287 148.842 51.2417 148.979 50.9727C149.123 50.7057 149.308 50.4621 149.526 50.2505C149.863 49.9154 150.265 49.6501 150.707 49.4704C151.566 49.1257 152.523 49.1051 153.397 49.4124C153.782 49.5523 154.14 49.7576 154.454 50.0191C154.77 50.2852 155.034 50.6059 155.234 50.9657C155.448 51.35 155.593 51.7677 155.665 52.2008H154.877C154.755 51.5454 154.413 50.9499 153.908 50.5103C153.409 50.0941 152.773 49.8736 152.121 49.8908C151.756 49.8898 151.395 49.9585 151.057 50.093C150.718 50.2272 150.41 50.4287 150.153 50.6851C149.977 50.8561 149.829 51.0536 149.715 51.2701C149.6 51.5029 149.519 51.7511 149.475 52.0069C149.416 52.3411 149.382 52.679 149.373 53.0181C149.358 53.4078 149.351 53.8773 149.351 54.4267C149.351 54.976 149.359 55.4455 149.373 55.8352C149.382 56.1743 149.416 56.5122 149.475 56.8464C149.519 57.1022 149.6 57.3504 149.715 57.5832C149.829 57.7998 149.977 57.9973 150.153 58.1682C150.41 58.4248 150.718 58.6263 151.057 58.7603C151.415 58.902 151.799 58.9705 152.184 58.9618C152.57 58.9532 152.95 58.8675 153.302 58.7099C153.682 58.5411 154.016 58.2863 154.279 57.966C154.495 57.7004 154.658 57.3964 154.76 57.0703C154.864 56.6989 154.913 56.3144 154.906 55.929V55.0046H152.121V54.3112H155.695V55.9866C155.703 56.4606 155.639 56.9332 155.504 57.388V57.388Z" fill="#595A5C"/>
<path d="M165.244 59.5702L159.251 50.628V59.5702H158.464V49.285H159.251L165.244 58.1979V49.285H166.03V59.5702H165.244Z" fill="#595A5C"/>
<path d="M175.931 55.93C175.926 56.3032 175.889 56.6754 175.821 57.0425C175.766 57.3367 175.668 57.6213 175.53 57.8873C175.385 58.1513 175.2 58.3923 174.983 58.6024C174.645 58.9377 174.244 59.2029 173.801 59.3826C172.895 59.7482 171.879 59.7482 170.973 59.3826C170.53 59.2031 170.129 58.9378 169.791 58.6024C169.574 58.3923 169.39 58.1513 169.245 57.8873C169.106 57.6213 169.008 57.3367 168.953 57.0425C168.885 56.6754 168.849 56.3032 168.844 55.93C168.834 55.5066 168.829 55.0058 168.829 54.4276C168.829 53.8494 168.834 53.3509 168.844 52.9323C168.849 52.5611 168.885 52.191 168.953 51.826C169.009 51.5296 169.107 51.2426 169.245 50.9737C169.389 50.7066 169.573 50.463 169.791 50.2515C170.129 49.9162 170.531 49.651 170.973 49.4713C171.879 49.1057 172.895 49.1057 173.801 49.4713C174.243 49.6512 174.645 49.9164 174.982 50.2515C175.201 50.463 175.385 50.7066 175.529 50.9737C175.666 51.2426 175.765 51.5296 175.821 51.826C175.888 52.191 175.925 52.5611 175.93 52.9323C175.939 53.3515 175.944 53.85 175.944 54.4276C175.945 55.0052 175.94 55.506 175.931 55.93ZM175.136 53.019C175.127 52.68 175.093 52.3421 175.034 52.0079C174.99 51.7521 174.909 51.5039 174.793 51.2711C174.679 51.0546 174.532 50.8572 174.356 50.686C174.099 50.4295 173.791 50.228 173.452 50.0939C172.769 49.8243 172.007 49.8243 171.323 50.0939C170.984 50.2281 170.677 50.4296 170.419 50.686C170.243 50.8571 170.096 51.0545 169.982 51.2711C169.866 51.5038 169.785 51.752 169.741 52.0079C169.683 52.342 169.649 52.68 169.64 53.019C169.625 53.4088 169.617 53.8783 169.618 54.4276C169.618 54.9769 169.625 55.4464 169.64 55.8362C169.649 56.1752 169.683 56.5132 169.741 56.8473C169.785 57.1032 169.866 57.3514 169.982 57.5841C170.096 57.8008 170.243 57.9982 170.419 58.1692C170.677 58.4257 170.984 58.6273 171.323 58.7613C172.007 59.0309 172.769 59.0309 173.452 58.7613C173.791 58.6274 174.099 58.4258 174.356 58.1692C174.532 57.9981 174.679 57.8007 174.793 57.5841C174.909 57.3513 174.99 57.1031 175.034 56.8473C175.093 56.5131 175.127 56.1752 175.136 55.8362C175.151 55.4458 175.158 54.9763 175.158 54.4276C175.158 53.8789 175.151 53.4093 175.136 53.019ZM172.548 48.3026H171.702L173.116 46.1785H174.093L172.548 48.3026Z" fill="#595A5C"/>
<path d="M183.906 58.8927C183.169 59.4403 182.26 59.7118 181.34 59.6591C180.986 59.6617 180.632 59.6352 180.283 59.5799C179.978 59.53 179.68 59.4477 179.394 59.3343C179.115 59.2229 178.851 59.0799 178.606 58.9081C178.349 58.7266 178.107 58.5236 177.884 58.3014L178.438 57.7523C178.648 57.963 178.875 58.1563 179.116 58.3302C179.327 58.48 179.555 58.606 179.794 58.7059C180.03 58.8029 180.278 58.8708 180.531 58.9081C180.813 58.9483 181.098 58.9675 181.383 58.9657C182.079 59.0043 182.768 58.8084 183.337 58.4099C183.574 58.2238 183.762 57.9845 183.886 57.7119C184.011 57.4393 184.067 57.1412 184.052 56.8424C184.069 56.5751 184.027 56.3073 183.929 56.0578C183.831 55.8082 183.679 55.5829 183.483 55.3976C183.386 55.3206 183.294 55.2533 183.207 55.1954C183.114 55.1349 183.013 55.0864 182.908 55.0511C182.781 55.0083 182.652 54.9722 182.521 54.9427C182.375 54.909 182.196 54.8778 181.982 54.8489L180.771 54.6608C180.094 54.5908 179.452 54.3297 178.92 53.9085C178.647 53.6758 178.432 53.3842 178.29 53.0561C178.148 52.728 178.085 52.3721 178.103 52.0158C178.085 51.6311 178.153 51.2471 178.301 50.8913C178.45 50.5354 178.676 50.2165 178.963 49.9572C179.628 49.4209 180.47 49.1505 181.326 49.1991C181.884 49.1854 182.44 49.274 182.966 49.4607C183.46 49.6611 183.917 49.944 184.315 50.297L183.804 50.8024C183.646 50.6637 183.481 50.5336 183.308 50.4125C183.14 50.2952 182.959 50.1959 182.769 50.1165C182.558 50.0296 182.338 49.9642 182.113 49.9213C181.839 49.8704 181.561 49.8463 181.282 49.8492C180.64 49.8101 180.007 50.0143 179.511 50.4205C179.297 50.6186 179.13 50.8603 179.021 51.1288C178.911 51.3974 178.862 51.6863 178.876 51.9755C178.858 52.2256 178.896 52.4767 178.99 52.7098C179.083 52.9429 179.229 53.152 179.415 53.3213C179.624 53.4893 179.858 53.6237 180.108 53.7195C180.383 53.8298 180.669 53.9098 180.961 53.9581L182.084 54.132C182.327 54.1706 182.541 54.2091 182.725 54.2475C182.892 54.281 183.055 54.327 183.214 54.3851C183.348 54.4351 183.478 54.4981 183.6 54.5732C183.717 54.6456 183.829 54.7253 183.935 54.8117C184.219 55.0456 184.446 55.3398 184.599 55.6724C184.762 56.029 184.844 56.4168 184.839 56.8084C184.856 57.2036 184.781 57.5973 184.619 57.9589C184.457 58.3204 184.213 58.64 183.906 58.8927V58.8927Z" fill="#595A5C"/>
<path d="M190.014 49.978V59.5702H189.227V49.978H186.136V49.285H193.12V49.978H190.014Z" fill="#595A5C"/>
<path d="M195.162 59.5702V49.285H195.949V59.5702H195.162Z" fill="#595A5C"/>
<path d="M205.397 57.9018C205.202 58.2608 204.943 58.5815 204.631 58.848C204.322 59.1103 203.966 59.3135 203.581 59.4476C203.171 59.5898 202.74 59.6606 202.306 59.6569C201.82 59.6591 201.34 59.5659 200.891 59.3825C200.449 59.2029 200.048 58.9377 199.71 58.6024C199.493 58.3923 199.309 58.1513 199.164 57.8872C199.025 57.6213 198.927 57.3366 198.872 57.0425C198.804 56.6754 198.767 56.3032 198.762 55.93C198.753 55.5066 198.748 55.0058 198.748 54.4276C198.748 53.8493 198.753 53.3509 198.762 52.9323C198.767 52.5611 198.804 52.191 198.872 51.826C198.928 51.5296 199.026 51.2426 199.164 50.9737C199.307 50.7066 199.492 50.463 199.71 50.2515C200.048 49.9163 200.449 49.6511 200.891 49.4713C201.34 49.2882 201.82 49.1949 202.306 49.1969C202.745 49.1924 203.181 49.2633 203.596 49.4062C203.978 49.5395 204.332 49.7429 204.638 50.0059C204.946 50.2739 205.204 50.5943 205.398 50.952C205.609 51.3431 205.757 51.7649 205.835 52.2017H205.031C204.91 51.5492 204.574 50.9548 204.076 50.5112C203.583 50.0938 202.952 49.873 202.304 49.8917C201.94 49.8907 201.578 49.9594 201.24 50.0939C200.901 50.2281 200.593 50.4296 200.336 50.686C200.16 50.857 200.013 51.0545 199.899 51.271C199.783 51.5038 199.702 51.752 199.658 52.0078C199.599 52.342 199.565 52.68 199.556 53.019C199.542 53.4087 199.534 53.8783 199.534 54.4276C199.534 54.9769 199.542 55.4464 199.556 55.8361C199.565 56.1752 199.599 56.5132 199.658 56.8473C199.702 57.1031 199.783 57.3513 199.899 57.5841C200.012 57.8007 200.16 57.9982 200.336 58.1691C200.593 58.4257 200.901 58.6272 201.24 58.7612C201.578 58.8958 201.94 58.9644 202.304 58.9635C202.956 58.9808 203.592 58.7604 204.091 58.3439C204.596 57.9043 204.938 57.3089 205.061 56.6535H205.833C205.755 57.0897 205.608 57.511 205.397 57.9018V57.9018Z" fill="#595A5C"/>
<path d="M214.509 59.5702L213.605 57.0712H208.765L207.861 59.5702H207.015L210.835 49.285H211.535L215.355 59.5702H214.509ZM211.185 50.3249L209.012 56.3778H213.358L211.185 50.3249Z" fill="#595A5C"/>
<path d="M222.339 58.8927C221.602 59.4403 220.693 59.7118 219.773 59.6591C219.419 59.6617 219.065 59.6353 218.716 59.5799C218.411 59.53 218.113 59.4476 217.826 59.3343C217.548 59.2229 217.284 59.0799 217.039 58.9082C216.781 58.7266 216.54 58.5237 216.317 58.3015L216.871 57.7523C217.081 57.9631 217.307 58.1564 217.549 58.3302C217.76 58.48 217.988 58.606 218.227 58.7059C218.463 58.8029 218.711 58.8708 218.963 58.9082C219.246 58.9483 219.531 58.9676 219.817 58.9657C220.513 59.0031 221.201 58.8058 221.77 58.4059C222.007 58.2198 222.195 57.9805 222.319 57.7079C222.443 57.4353 222.5 57.1372 222.485 56.8385C222.502 56.5711 222.46 56.3033 222.361 56.0538C222.263 55.8042 222.111 55.5789 221.916 55.3936C221.819 55.3166 221.726 55.2492 221.639 55.1914C221.546 55.1309 221.445 55.0824 221.34 55.0471C221.213 55.0044 221.084 54.9682 220.954 54.9387C220.808 54.9051 220.628 54.8738 220.414 54.8449L219.204 54.6568C218.527 54.587 217.884 54.3258 217.352 53.9045C217.079 53.6718 216.864 53.3802 216.722 53.0521C216.581 52.724 216.517 52.3681 216.536 52.0118C216.518 51.6271 216.585 51.2431 216.734 50.8872C216.882 50.5313 217.109 50.2124 217.396 49.9532C218.06 49.417 218.903 49.1465 219.758 49.1952C220.316 49.1814 220.873 49.2701 221.399 49.4567C221.893 49.6571 222.349 49.94 222.747 50.2931L222.237 50.7984C222.079 50.6598 221.913 50.5297 221.741 50.4086C221.572 50.2913 221.391 50.192 221.202 50.1125C220.99 50.0256 220.77 49.9602 220.545 49.9174C220.271 49.8664 219.993 49.8423 219.714 49.8452C219.072 49.8063 218.439 50.0105 217.943 50.4165C217.73 50.6146 217.563 50.8563 217.453 51.1249C217.343 51.3934 217.294 51.6823 217.309 51.9716C217.29 52.2217 217.329 52.4728 217.422 52.706C217.516 52.9391 217.661 53.1481 217.848 53.3173C218.056 53.4854 218.29 53.6199 218.54 53.7156C218.815 53.8258 219.101 53.9058 219.394 53.9541L220.516 54.128C220.759 54.1666 220.973 54.2051 221.158 54.2435C221.324 54.2771 221.487 54.3231 221.646 54.3811C221.781 54.4314 221.91 54.4943 222.033 54.5692C222.149 54.6416 222.261 54.7213 222.368 54.8077C222.651 55.0416 222.878 55.3358 223.031 55.6684C223.195 56.025 223.277 56.4129 223.272 56.8044C223.29 57.2002 223.215 57.5948 223.053 57.9571C222.891 58.3195 222.646 58.6397 222.339 58.8927V58.8927Z" fill="#595A5C"/>
</g>
<defs>
<clipPath id="clip0_92_3">
<rect width="224" height="78" fill="white"/>
</clipPath>
</defs>
</svg>
