<svg id="Capa_1" data-name="Capa 1" xmlns="http://www.w3.org/2000/svg" viewBox="0 0 555.26 230.495"><defs><style>.cls-1{fill:#f26a34;}.cls-2{fill:#595a5c;}</style></defs><path class="cls-1" d="M89.464,31.327c-5.339-1.744-12.57-2.7-20.361-2.7a82,82,0,0,0-14.364,1.19C38.485,32.932,28.676,42.561,28.5,55.606v81.956c.179,11.846,8.722,21.124,22.846,24.816a72.839,72.839,0,0,0,17.778,1.942,72.665,72.665,0,0,0,18.638-2.139c13.806-3.936,21.724-12.988,21.724-24.835V134.7l-14.125.28v2.544c0,7.106-8.052,10.12-11.509,11.085A57.856,57.856,0,0,1,69.1,150.283h0a59.71,59.71,0,0,1-14.1-1.5c-3.72-.993-12.373-4.079-12.373-11.261V55.606c0-8.4,11.258-11.26,14.688-11.931a68.88,68.88,0,0,1,12.242-1.051,52.721,52.721,0,0,1,15.576,2.031c3.819,1.3,10.226,4.463,10.226,10.951V58.2h14.125V55.606C109.484,44.328,102.385,35.709,89.464,31.327Z"/><rect class="cls-1" x="130.907" y="29.484" width="14.263" height="135.697"/><path class="cls-1" d="M215,30.347H167.767V164.32h45.945c17.971,0,37.312-8.628,37.312-27.571V57.732C251.024,39.753,232.9,30.347,215,30.347Zm20.891,109.446c-2.288,6.867-13.1,10-22.18,10H182.3V44.7h32.516c8.744,0,21.68,4.143,21.68,13.036,0,2.434.014,6.024.031,10.371l.01,2.648C236.622,92,236.8,136.213,235.892,139.793Z"/><path class="cls-1" d="M38.106,202.169H35.388l-7.571-23.036h3.624l5.306,16.759,5.306-16.759h3.688Z"/><path class="cls-1" d="M48.1,202.169V179.133h3.5v23.036Z"/><path class="cls-1" d="M56.806,202.169V179.133H60.3v19.9H71.4v3.139Z"/><path class="cls-1" d="M74.568,202.169V179.133h3.493v19.9h11.1v3.139Z"/><path class="cls-1" d="M105.562,202.169l-1.585-4.627H94.885L93.3,202.169H89.579l8.444-23.036h2.815l8.445,23.036Zm-6.05-17.8L95.921,194.6h7.085Z"/><path class="cls-1" d="M131.93,202.169l-1.585-4.627h-9.092l-1.585,4.627h-3.721l8.445-23.036h2.814l8.445,23.036Zm-6.05-17.8L122.289,194.6h7.085Z"/><path class="cls-1" d="M138.11,202.169V179.133H141.6v19.9h11.1v3.139Z"/><path class="cls-1" d="M155.872,202.169V179.133h3.493v19.9h11.1v3.139Z"/><path class="cls-1" d="M173.633,202.169V179.133h14.722v3.138H177.128V189H186.7v3.106h-9.576v6.923h11.227v3.139Z"/><path class="cls-1" d="M206.472,202.169l-10.644-16.21v16.21h-3.494V179.133h3.2l10.644,16.177V179.133h3.494v23.036Z"/><path class="cls-1" d="M231.239,193.045a17.668,17.668,0,0,1-.211,2.524,9.88,9.88,0,0,1-.679,2.361A6.576,6.576,0,0,1,228.925,200a6.877,6.877,0,0,1-2.62,1.634,10,10,0,0,1-3.333.534h-8.088V179.133h8.088a10,10,0,0,1,3.333.534,6.863,6.863,0,0,1,2.62,1.633,6.789,6.789,0,0,1,1.424,2.023,9.145,9.145,0,0,1,.679,2.264,16.246,16.246,0,0,1,.211,2.411q.015,1.23.016,2.491T231.239,193.045Zm-3.64-6.584a4.48,4.48,0,0,0-1.068-2.637,5.047,5.047,0,0,0-3.915-1.553h-4.238V199.03h4.238a5.044,5.044,0,0,0,3.915-1.553,4.686,4.686,0,0,0,1.068-2.8q.162-1.8.161-4.19T227.6,186.461Z"/><path class="cls-1" d="M235.622,202.169V179.133h14.721v3.138H239.116V189h9.577v3.106h-9.577v6.923h11.227v3.139Z"/><rect class="cls-2" x="279.493" y="28.623" width="2.016" height="173.546"/><path class="cls-2" d="M318.025,89.859a8.186,8.186,0,0,1-5.848-2.395c-2.137-2.134-2.17-4.239-2.17-9.5,0-5.29.033-7.356,2.17-9.5a8.2,8.2,0,0,1,5.848-2.4c4.2,0,7.162,2.63,7.948,6.833h-1.806c-.69-3.25-2.988-5.258-6.142-5.258a6.208,6.208,0,0,0-4.439,1.81c-1.674,1.676-1.806,3.514-1.806,8.508s.132,6.832,1.806,8.511a6.316,6.316,0,0,0,10.649-3.451h1.738c-.786,4.2-3.81,6.832-7.948,6.832"/><polygon class="cls-2" points="332.079 66.273 346.274 66.273 346.274 67.851 333.853 67.851 333.853 77.083 344.434 77.083 344.434 78.659 333.853 78.659 333.853 88.087 346.274 88.087 346.274 89.663 332.079 89.663 332.079 66.273"/><polygon class="cls-2" points="353.5 69.33 353.5 89.665 351.725 89.665 351.725 66.273 353.5 66.273 367.001 86.541 367.001 66.273 368.772 66.273 368.772 89.665 367.001 89.665 353.5 69.33"/><polygon class="cls-2" points="382.109 89.664 380.333 89.664 380.333 67.853 373.369 67.853 373.369 66.275 389.109 66.275 389.109 67.853 382.109 67.853 382.109 89.664"/><path class="cls-2" d="M401.917,78.89h-6.442V89.663H393.7V66.273h8.9c3.812,0,6.706,2.2,6.706,6.277a6.021,6.021,0,0,1-5.391,6.306l5.653,10.807H407.5Zm.461-11.039h-6.9v9.462h6.9c3.022,0,5.156-1.479,5.156-4.729s-2.134-4.733-5.156-4.733"/><path class="cls-2" d="M428.23,87.464a8.337,8.337,0,0,1-11.7,0c-2.137-2.135-2.167-4.24-2.167-9.5,0-5.289.03-7.355,2.167-9.495a8.332,8.332,0,0,1,11.7,0c2.136,2.14,2.166,4.206,2.166,9.495,0,5.258-.03,7.363-2.166,9.5m-1.416-18a6.34,6.34,0,0,0-8.871,0c-1.675,1.676-1.8,3.514-1.8,8.507s.126,6.832,1.8,8.512a6.347,6.347,0,0,0,8.871,0c1.68-1.68,1.81-3.514,1.81-8.512s-.13-6.831-1.81-8.507"/><path class="cls-2" d="M458.777,87.529a7.948,7.948,0,0,1-5.846,2.135h-7.852V66.272h7.852a7.942,7.942,0,0,1,5.846,2.139c2.368,2.363,2.266,6.078,2.266,9.229s.1,7.522-2.266,9.889m-1.249-17.872a6.6,6.6,0,0,0-5.024-1.808h-5.649V88.086H452.5a6.579,6.579,0,0,0,5.024-1.807c1.842-1.94,1.742-6.013,1.742-8.639s.1-6.046-1.742-7.983"/><polygon class="cls-2" points="467.347 66.273 481.541 66.273 481.541 67.851 469.124 67.851 469.124 77.083 479.7 77.083 479.7 78.659 469.124 78.659 469.124 88.087 481.541 88.087 481.541 89.663 467.347 89.663 467.347 66.273"/><rect class="cls-2" x="310.007" y="102.101" width="1.773" height="23.389"/><polygon class="cls-2" points="336.877 106.207 329.783 122.206 328.011 122.206 320.781 106.207 320.781 125.493 319.006 125.493 319.006 102.104 320.781 102.104 328.931 120.135 336.877 102.104 338.654 102.104 338.654 125.493 336.877 125.493 336.877 106.207"/><path class="cls-2" d="M357.6,119.808H346.7l-2.034,5.682h-1.9l8.605-23.389h1.574l8.61,23.389h-1.908Zm-10.346-1.576h9.791l-4.895-13.764Zm3.352-18.364L353.8,95.04H356l-3.48,4.828Z"/><path class="cls-2" d="M378.565,123a8.281,8.281,0,0,1-6.145,2.692,8.2,8.2,0,0,1-5.849-2.4c-2.135-2.131-2.166-4.236-2.166-9.491,0-5.29.031-7.36,2.166-9.5a8.205,8.205,0,0,1,5.849-2.4,7.912,7.912,0,0,1,7.979,6.831h-1.767a6.316,6.316,0,0,0-10.647-3.448c-1.676,1.679-1.808,3.514-1.808,8.511s.132,6.833,1.808,8.5a6.2,6.2,0,0,0,4.435,1.809,6.288,6.288,0,0,0,4.862-2.265,6.8,6.8,0,0,0,1.41-4.634v-2.1H372.42v-1.578h8.048v3.811c0,2.464-.491,4.173-1.9,5.651"/><polygon class="cls-2" points="386.708 102.102 400.9 102.102 400.9 103.678 388.477 103.678 388.477 112.912 399.06 112.912 399.06 114.487 388.477 114.487 388.477 123.915 400.9 123.915 400.9 125.493 386.708 125.493 386.708 102.102"/><polygon class="cls-2" points="408.122 105.157 408.122 125.493 406.348 125.493 406.348 102.104 408.122 102.104 421.628 122.371 421.628 102.104 423.398 102.104 423.398 125.493 421.628 125.493 408.122 105.157"/><polygon class="cls-2" points="430.623 102.102 444.817 102.102 444.817 103.678 432.4 103.678 432.4 112.912 442.977 112.912 442.977 114.487 432.4 114.487 432.4 123.915 444.817 123.915 444.817 125.493 430.623 125.493 430.623 102.102"/><path class="cls-2" d="M456.115,125.687a9.913,9.913,0,0,1-7.784-3.085l1.249-1.25a8.214,8.214,0,0,0,6.634,2.76c3.711,0,6.011-1.772,6.011-4.831a4.077,4.077,0,0,0-1.28-3.284,5.65,5.65,0,0,0-3.385-1.248l-2.725-.427a7.947,7.947,0,0,1-4.174-1.709,5.326,5.326,0,0,1-1.837-4.3c0-3.945,2.761-6.406,7.26-6.406a9.252,9.252,0,0,1,6.734,2.528l-1.149,1.149a7.446,7.446,0,0,0-5.686-2.168c-3.414,0-5.422,1.838-5.422,4.828a3.765,3.765,0,0,0,1.218,3.057,7.817,7.817,0,0,0,3.485,1.447l2.529.39c2.2.3,3.221.726,4.171,1.547A5.744,5.744,0,0,1,464,119.218c0,3.971-2.984,6.469-7.883,6.469"/><path class="cls-2" d="M325.856,152.313a18.464,18.464,0,0,1-.229,2.677,12.98,12.98,0,0,1-.669,2.53,5.824,5.824,0,0,1-1.339,2.089,6.814,6.814,0,0,1-2.513,1.584,9.533,9.533,0,0,1-3.3.538h-7.8V138.489h7.8a7.853,7.853,0,0,1,5.81,2.121,6.067,6.067,0,0,1,1.339,1.992,11.249,11.249,0,0,1,.669,2.3,15.25,15.25,0,0,1,.229,2.449q.015,1.257.016,2.431T325.856,152.313Zm-1.763-4.6a18.031,18.031,0,0,0-.163-2.155,9.538,9.538,0,0,0-.506-2.024,4.881,4.881,0,0,0-1.045-1.681,5.2,5.2,0,0,0-2.3-1.42,9.591,9.591,0,0,0-2.693-.376H311.77v20.109h5.614a9.59,9.59,0,0,0,2.693-.375,5.193,5.193,0,0,0,2.3-1.42,4.742,4.742,0,0,0,1.045-1.779,11.357,11.357,0,0,0,.506-2.253,22.424,22.424,0,0,0,.163-2.383q.015-1.191.016-2.171T324.093,147.711Z"/><path class="cls-2" d="M332.139,161.731V138.489H333.9v23.242Z"/><path class="cls-2" d="M354.761,161.731l-2.023-5.647H341.9l-2.024,5.647h-1.894l8.553-23.242H348.1l8.553,23.242Zm-7.442-20.892-4.864,13.678h9.728Z"/><path class="cls-2" d="M375.033,156.8a6.345,6.345,0,0,1-1.468,2.448,7.91,7.91,0,0,1-2.743,1.975,8.4,8.4,0,0,1-6.529.082,8.038,8.038,0,0,1-2.644-1.763,6.819,6.819,0,0,1-1.224-1.616,6.929,6.929,0,0,1-.653-1.909,14.872,14.872,0,0,1-.245-2.514q-.031-1.435-.032-3.395t.032-3.379a14.764,14.764,0,0,1,.245-2.5,7.18,7.18,0,0,1,.653-1.926,6.674,6.674,0,0,1,1.224-1.632,8.054,8.054,0,0,1,2.644-1.763,8.485,8.485,0,0,1,6.023-.131,7.909,7.909,0,0,1,2.367,1.371,7.654,7.654,0,0,1,1.746,2.139,8.675,8.675,0,0,1,.964,2.791H373.63a6.706,6.706,0,0,0-2.171-3.82,5.964,5.964,0,0,0-4-1.4,6.353,6.353,0,0,0-2.383.457,5.987,5.987,0,0,0-2.024,1.338,5.249,5.249,0,0,0-.979,1.322,6.065,6.065,0,0,0-.539,1.665,15.726,15.726,0,0,0-.228,2.285q-.05,1.321-.049,3.183t.049,3.183a15.726,15.726,0,0,0,.228,2.285,6.065,6.065,0,0,0,.539,1.665,5.232,5.232,0,0,0,.979,1.322,5.972,5.972,0,0,0,2.024,1.338,6.423,6.423,0,0,0,5.027-.114,5.956,5.956,0,0,0,2.187-1.681,6.083,6.083,0,0,0,1.078-2.024,8.982,8.982,0,0,0,.326-2.579v-2.089H367.46v-1.567h8v3.786A10.515,10.515,0,0,1,375.033,156.8Z"/><path class="cls-2" d="M396.84,161.731l-13.417-20.207v20.207H381.66V138.489h1.763L396.84,158.63V138.489H398.6v23.242Z"/><path class="cls-2" d="M420.768,153.505a14.976,14.976,0,0,1-.245,2.514,6.929,6.929,0,0,1-.653,1.909,6.819,6.819,0,0,1-1.224,1.616A8.049,8.049,0,0,1,416,161.307a8.4,8.4,0,0,1-6.333,0,8.032,8.032,0,0,1-2.645-1.763,6.819,6.819,0,0,1-1.224-1.616,6.929,6.929,0,0,1-.653-1.909,14.88,14.88,0,0,1-.244-2.514q-.033-1.435-.033-3.395t.033-3.379a14.772,14.772,0,0,1,.244-2.5,7.18,7.18,0,0,1,.653-1.926,6.674,6.674,0,0,1,1.224-1.632,8.048,8.048,0,0,1,2.645-1.763,8.4,8.4,0,0,1,6.333,0,8.064,8.064,0,0,1,2.644,1.763,6.674,6.674,0,0,1,1.224,1.632,7.18,7.18,0,0,1,.653,1.926,14.868,14.868,0,0,1,.245,2.5q.031,1.421.032,3.379T420.768,153.505Zm-1.779-6.578a16,16,0,0,0-.229-2.285,6.1,6.1,0,0,0-.539-1.665,5.274,5.274,0,0,0-.979-1.322,5.977,5.977,0,0,0-2.024-1.338,6.442,6.442,0,0,0-4.766,0,5.987,5.987,0,0,0-2.024,1.338,5.249,5.249,0,0,0-.979,1.322,6.065,6.065,0,0,0-.539,1.665,15.726,15.726,0,0,0-.228,2.285q-.05,1.321-.049,3.183t.049,3.183a15.726,15.726,0,0,0,.228,2.285,6.065,6.065,0,0,0,.539,1.665,5.232,5.232,0,0,0,.979,1.322,5.972,5.972,0,0,0,2.024,1.338,6.442,6.442,0,0,0,4.766,0,5.962,5.962,0,0,0,2.024-1.338,5.256,5.256,0,0,0,.979-1.322,6.1,6.1,0,0,0,.539-1.665,16,16,0,0,0,.229-2.285q.048-1.323.048-3.183T418.989,146.927Zm-5.795-10.658H411.3l3.166-4.8h2.188Z"/><path class="cls-2" d="M438.624,160.2a8.738,8.738,0,0,1-5.746,1.732,14.321,14.321,0,0,1-2.366-.179,9.591,9.591,0,0,1-1.991-.555,8.686,8.686,0,0,1-1.763-.963,12.443,12.443,0,0,1-1.616-1.371l1.24-1.241a12.169,12.169,0,0,0,1.518,1.306,7.834,7.834,0,0,0,1.518.849,7.012,7.012,0,0,0,1.649.457,12.845,12.845,0,0,0,1.909.13,6.911,6.911,0,0,0,4.375-1.256,4.247,4.247,0,0,0,1.6-3.542,4.159,4.159,0,0,0-1.273-3.265c-.218-.174-.424-.326-.62-.457a2.93,2.93,0,0,0-.669-.326,8.662,8.662,0,0,0-.865-.245q-.49-.114-1.208-.212l-2.71-.425a7.958,7.958,0,0,1-4.145-1.7,5.28,5.28,0,0,1-1.829-4.277,5.914,5.914,0,0,1,1.926-4.652,7.676,7.676,0,0,1,5.289-1.713,10.138,10.138,0,0,1,3.672.591,10.472,10.472,0,0,1,3.02,1.89l-1.143,1.142a13.152,13.152,0,0,0-1.11-.881,6.5,6.5,0,0,0-1.207-.669,7.58,7.58,0,0,0-1.469-.441,9.546,9.546,0,0,0-1.861-.163,5.678,5.678,0,0,0-3.966,1.291,4.512,4.512,0,0,0-1.42,3.514,3.744,3.744,0,0,0,1.207,3.041,5.714,5.714,0,0,0,1.551.9,9.043,9.043,0,0,0,1.91.539l2.513.393q.816.131,1.437.261a7.46,7.46,0,0,1,1.093.311,4.936,4.936,0,0,1,.865.425,7.344,7.344,0,0,1,.751.539,5.508,5.508,0,0,1,1.486,1.945,6.027,6.027,0,0,1,.538,2.567A5.8,5.8,0,0,1,438.624,160.2Z"/><path class="cls-2" d="M452.3,140.055v21.676h-1.763V140.055h-6.921v-1.566h15.637v1.566Z"/><path class="cls-2" d="M463.825,161.731V138.489h1.763v23.242Z"/><path class="cls-2" d="M486.741,157.961a7.549,7.549,0,0,1-1.714,2.138,7.4,7.4,0,0,1-2.351,1.355,8.423,8.423,0,0,1-2.856.473,8.205,8.205,0,0,1-3.167-.62,8.038,8.038,0,0,1-2.644-1.763,6.819,6.819,0,0,1-1.224-1.616,6.929,6.929,0,0,1-.653-1.909,14.872,14.872,0,0,1-.245-2.514q-.031-1.435-.032-3.395t.032-3.379a14.764,14.764,0,0,1,.245-2.5,7.18,7.18,0,0,1,.653-1.926,6.674,6.674,0,0,1,1.224-1.632,8.054,8.054,0,0,1,2.644-1.763,8.224,8.224,0,0,1,3.167-.62,8.524,8.524,0,0,1,2.889.473,7.232,7.232,0,0,1,2.334,1.355,7.7,7.7,0,0,1,1.7,2.138,9.523,9.523,0,0,1,.979,2.824h-1.8a6.792,6.792,0,0,0-2.139-3.82,5.838,5.838,0,0,0-3.966-1.4,6.353,6.353,0,0,0-2.383.457,5.987,5.987,0,0,0-2.024,1.338,5.249,5.249,0,0,0-.979,1.322,6.065,6.065,0,0,0-.539,1.665,15.726,15.726,0,0,0-.228,2.285q-.049,1.321-.049,3.183t.049,3.183a15.726,15.726,0,0,0,.228,2.285,6.065,6.065,0,0,0,.539,1.665,5.232,5.232,0,0,0,.979,1.322,5.972,5.972,0,0,0,2.024,1.338,6.353,6.353,0,0,0,2.383.457,5.959,5.959,0,0,0,4-1.4,6.706,6.706,0,0,0,2.171-3.82h1.73A9.523,9.523,0,0,1,486.741,157.961Z"/><path class="cls-2" d="M507.143,161.731l-2.024-5.647H494.282l-2.024,5.647h-1.894l8.553-23.242h1.567l8.553,23.242ZM499.7,140.839l-4.864,13.678h9.729Z"/><path class="cls-2" d="M524.673,160.2a8.737,8.737,0,0,1-5.745,1.732,14.325,14.325,0,0,1-2.367-.179,9.609,9.609,0,0,1-1.991-.555,8.686,8.686,0,0,1-1.763-.963,12.443,12.443,0,0,1-1.616-1.371l1.24-1.241a12.169,12.169,0,0,0,1.518,1.306,7.834,7.834,0,0,0,1.518.849,7.012,7.012,0,0,0,1.649.457,12.849,12.849,0,0,0,1.91.13A6.91,6.91,0,0,0,523.4,159.1a4.247,4.247,0,0,0,1.6-3.542,4.16,4.16,0,0,0-1.274-3.265q-.326-.261-.62-.457a2.93,2.93,0,0,0-.669-.326,8.662,8.662,0,0,0-.865-.245q-.489-.114-1.208-.212l-2.709-.425a7.958,7.958,0,0,1-4.146-1.7,5.279,5.279,0,0,1-1.828-4.277,5.91,5.91,0,0,1,1.926-4.652,7.674,7.674,0,0,1,5.288-1.713,10.144,10.144,0,0,1,3.673.591,10.468,10.468,0,0,1,3.019,1.89l-1.142,1.142a13.314,13.314,0,0,0-1.11-.881,6.537,6.537,0,0,0-1.208-.669,7.559,7.559,0,0,0-1.469-.441,9.539,9.539,0,0,0-1.861-.163,5.682,5.682,0,0,0-3.966,1.291,4.512,4.512,0,0,0-1.42,3.514,3.741,3.741,0,0,0,1.208,3.041,5.693,5.693,0,0,0,1.55.9,9.043,9.043,0,0,0,1.91.539l2.514.393q.815.131,1.436.261a7.512,7.512,0,0,1,1.094.311,5.006,5.006,0,0,1,.865.425,7.331,7.331,0,0,1,.75.539,5.5,5.5,0,0,1,1.486,1.945,6.027,6.027,0,0,1,.538,2.567A5.794,5.794,0,0,1,524.673,160.2Z"/></svg>