<svg id="Capa_1" data-name="Capa 1" xmlns="http://www.w3.org/2000/svg" viewBox="0 0 62.029 62.031"><defs><style>.cls-1{fill:#ef6a34;}</style></defs><path class="cls-1" d="M0,29.076c.158-1.137.269-2.282.481-3.408A30.464,30.464,0,0,1,14.447,4.831,30.305,30.305,0,0,1,31.73.006,29.863,29.863,0,0,1,40.179,1.4a1.5,1.5,0,0,1,1.16,1.685,1.483,1.483,0,0,1-1.346,1.339A2.541,2.541,0,0,1,39.1,4.3c-9.017-2.524-17.376-1.123-24.9,4.453A26.674,26.674,0,0,0,3.522,26.227,27.1,27.1,0,0,0,9.594,48.916a26.668,26.668,0,0,0,16.68,9.6A26.834,26.834,0,0,0,49.933,51.5c7-6.5,9.856-14.675,8.724-24.181a38.783,38.783,0,0,0-.946-4.428,1.625,1.625,0,0,1,.989-2.154,1.591,1.591,0,0,1,1.991,1.281A31.019,31.019,0,0,1,36.659,61.507c-1.224.231-2.469.352-3.7.524H29.078a4.044,4.044,0,0,0-.4-.1c-1.435-.212-2.885-.345-4.3-.641A31,31,0,0,1,.476,36.358c-.188-1.13-.319-2.27-.476-3.4Z"/><path class="cls-1" d="M31.142,52.665A21.857,21.857,0,0,1,9.8,34.505,21.6,21.6,0,0,1,28.147,9.5a35.661,35.661,0,0,1,4.167-.154,1.634,1.634,0,0,1,1.449.742A1.492,1.492,0,0,1,32.35,12.45a15.93,15.93,0,0,0-7.317.966c-7.115,2.7-11.376,7.831-12.291,15.4a18.5,18.5,0,0,0,36.563,5.542,27.62,27.62,0,0,0,.261-4.571c.006-1,.478-1.757,1.4-1.859a1.5,1.5,0,0,1,1.7,1.559,26.908,26.908,0,0,1-.3,5.3c-1.934,9.145-7.507,14.9-16.556,17.222A40.956,40.956,0,0,1,31.142,52.665Z"/><path class="cls-1" d="M45.47,21.685a8.218,8.218,0,0,0-2.873.074c-.812.324-1.385,1.251-2.056,1.921q-4.071,4.065-8.136,8.137a1.656,1.656,0,0,1-1.731.587,1.521,1.521,0,0,1-.764-2.434,6.052,6.052,0,0,1,.5-.529q4.752-4.755,9.514-9.5a1.454,1.454,0,0,0,.473-1.165c-.028-1.514,0-3.028-.015-4.542a2.124,2.124,0,0,1,.665-1.621Q45.49,8.2,49.909,3.75a1.635,1.635,0,0,1,1.905-.513A1.575,1.575,0,0,1,52.75,4.91c-.014,1.252.022,2.5-.015,3.755-.015.522.168.643.656.631,1.251-.03,2.5,0,3.755-.014a1.559,1.559,0,0,1,1.658.959,1.617,1.617,0,0,1-.5,1.857q-4.462,4.445-8.9,8.909a2.041,2.041,0,0,1-1.569.641c-.787-.016-1.574,0-2.362,0Zm8.066-9.176-.058-.144c-.478,0-.958-.028-1.433,0-1.845.127-2.509-.558-2.381-2.353.035-.491,0-.987,0-1.535a1.266,1.266,0,0,0-.23.126q-2.872,2.865-5.738,5.738a.606.606,0,0,0-.2.351c-.015,1.264-.009,2.53-.009,3.847a22.016,22.016,0,0,1,2.472.018,2.861,2.861,0,0,0,2.619-1.08C50.177,15.771,51.879,14.161,53.536,12.509Z"/><path class="cls-1" d="M18.8,30.907A12.31,12.31,0,0,1,30.526,18.556a5.287,5.287,0,0,1,.666,0,1.555,1.555,0,0,1,1.468,1.5,1.517,1.517,0,0,1-1.325,1.555c-.815.124-1.655.133-2.453.325A9.257,9.257,0,1,0,40.366,31.3a1.8,1.8,0,0,1,.854-1.747,1.543,1.543,0,0,1,2.26,1.523A11.781,11.781,0,0,1,40.61,38.8c-3.4,3.908-7.718,5.348-12.7,4-4.961-1.337-7.917-4.753-8.969-9.791A7.12,7.12,0,0,1,18.805,32C18.782,31.635,18.8,31.27,18.8,30.907Z"/></svg>