<svg id="Capa_1" data-name="Capa 1" xmlns="http://www.w3.org/2000/svg" viewBox="0 0 87.843 128.787"><defs><style>.cls-1{fill:#ef6a34;}</style></defs><path class="cls-1" d="M44.51,128.787c-1.42-1.761-2.806-3.42-4.127-5.13a306,306,0,0,1-27.75-42.143A128.112,128.112,0,0,1,2.285,57.4,49.383,49.383,0,0,1,.023,44.858a41.656,41.656,0,0,1,8.21-26.69A42.82,42.82,0,0,1,37.849.425C61-2.737,80.943,12.1,86.379,33.3A42.575,42.575,0,0,1,87.56,49.126a67.006,67.006,0,0,1-3.669,14.585,159.581,159.581,0,0,1-12.541,26.1,331.245,331.245,0,0,1-26.142,38.117C45.014,128.174,44.813,128.414,44.51,128.787Zm-.651-56.981A27.207,27.207,0,1,0,16.694,44.558,27.335,27.335,0,0,0,43.859,71.806Z"/></svg>