<svg width="30" height="30" viewBox="0 0 30 30" fill="none" xmlns="http://www.w3.org/2000/svg">
<g clip-path="url(#clip0_132_2)">
<path d="M0.417028 24.9462L4.6467 29.1419C5.27105 29.7822 6.09863 29.9991 6.9046 30.0001C10.4689 29.8933 13.8379 28.1425 16.6041 26.3447C21.1447 23.0415 25.3108 18.9456 27.9256 13.9959C28.9284 11.9203 30.1051 9.27207 29.9927 6.95534C29.9827 6.08384 29.7478 5.22852 29.1341 4.66677L24.9044 0.439244C24.0261 -0.307831 23.1767 -0.0495315 22.6147 0.820668L19.2119 7.27322C18.8538 8.03764 19.0592 8.85669 19.5936 9.40292L21.1519 10.9604C21.2481 11.0922 21.3093 11.2422 21.3109 11.4054C20.7133 13.7185 18.903 15.8504 17.3038 17.3176C15.7047 18.7848 13.9857 20.7725 11.7544 21.2431C11.4786 21.32 11.1408 21.3471 10.9435 21.1636L9.1307 19.3201C8.5058 18.8464 7.60355 18.6149 6.93643 19.0022H6.90463L0.766879 22.6258C-0.134146 23.1906 -0.228097 24.2821 0.417028 24.9462V24.9462Z" fill="white"/>
</g>
<defs>
<clipPath id="clip0_132_2">
<rect width="30" height="30" fill="white" transform="matrix(-1 0 0 1 30 0)"/>
</clipPath>
</defs>
</svg>
