<svg width="129" height="129" viewBox="0 0 129 129" fill="none" xmlns="http://www.w3.org/2000/svg">
<path d="M64.9974 128.787C63.5774 127.026 62.1914 125.367 60.8704 123.657C50.476 110.397 41.1944 96.3015 33.1204 81.5139C28.8548 73.8512 25.3873 65.7709 22.7724 57.3999C21.4798 53.3344 20.7195 49.1187 20.5104 44.8579C20.0948 35.2816 22.9945 25.855 28.7204 18.1679C32.1551 13.3168 36.5621 9.23404 41.661 6.17932C46.7598 3.12459 52.4388 1.16486 58.3364 0.424859C81.4874 -2.73714 101.43 12.0999 106.866 33.2999C108.248 38.4545 108.649 43.8231 108.047 49.1259C107.376 54.1098 106.145 59.0023 104.378 63.7109C100.998 72.7729 96.8 81.5089 91.8374 89.8109C84.0215 103.11 75.2863 115.846 65.6954 127.928C65.5014 128.174 65.3004 128.414 64.9974 128.787ZM64.3464 71.8059C69.7275 71.8142 74.9901 70.2266 79.4689 67.2439C83.9477 64.2612 87.4415 60.0174 89.5083 55.0491C91.5752 50.0808 92.1224 44.6112 91.0807 39.3319C90.039 34.0526 87.4551 29.2008 83.6559 25.39C79.8567 21.5792 75.0128 18.9806 69.7368 17.9228C64.4607 16.8649 58.9894 17.3954 54.0148 19.4471C49.0402 21.4988 44.7858 24.9796 41.7895 29.4493C38.7931 33.919 37.1895 39.1768 37.1814 44.5579C37.2042 51.7631 40.0709 58.668 45.158 63.7706C50.2452 68.8733 57.1412 71.7611 64.3464 71.8059Z" fill="#EF6A34"/>
</svg>
