<svg width="238" height="238" viewBox="0 0 238 238" fill="none" xmlns="http://www.w3.org/2000/svg">
<g clip-path="url(#clip0_60_6)">
<path d="M118.864 191.5C95.5219 191.388 72.6514 184.908 52.7084 172.756C33.259 160.944 16.321 145.412 2.86053 127.046C2.11135 126.004 1.47996 124.882 0.977958 123.701C0.79983 123.323 0.628687 122.942 0.436588 122.578L0 121.727V116.007L0.6706 115.023C1.40756 113.942 2.12357 112.844 2.83608 111.741C4.45059 109.156 6.20782 106.664 8.09959 104.275C22.5241 86.1177 40.6156 71.2192 61.1887 60.5553C75.4385 53.23 90.938 48.6588 106.877 47.0808C137.117 44.3096 167.363 52.3177 192.287 69.6945C208.714 80.9015 223.15 94.7862 234.996 110.772C236.933 113.078 237.997 115.993 238.001 119.007C238.005 122.02 236.948 124.938 235.017 127.249C221.417 145.701 204.316 161.283 184.694 173.102C168.291 182.934 149.926 189.021 130.907 190.93C126.874 191.312 122.859 191.502 118.864 191.5ZM7.66649 119.901L7.92844 120.461C8.21521 121.139 8.56607 121.788 8.97625 122.399C21.8354 139.977 38.022 154.848 56.6133 166.164C78.6523 179.674 104.459 185.687 130.187 183.309C148.09 181.509 165.377 175.774 180.814 166.514C199.58 155.185 215.93 140.256 228.926 122.585C229.819 121.608 230.313 120.33 230.31 119.005C230.306 117.68 229.804 116.405 228.905 115.433C217.572 100.123 203.759 86.8223 188.04 76.0836C162.47 58.9982 136.142 52.0108 107.593 54.74C92.6131 56.2251 78.0463 60.522 64.6535 67.4062C45.0261 77.5938 27.768 91.8196 14.0092 109.152C12.2994 111.32 10.7123 113.583 9.25567 115.93C8.72478 116.745 8.20786 117.56 7.65601 118.379L7.66649 119.901ZM119.555 171.283C105.718 171.346 92.4021 165.994 82.4453 156.367C77.5932 151.73 73.708 146.175 71.0148 140.023C68.3217 133.87 66.8741 127.244 66.7561 120.527C66.373 106.683 71.4782 93.2503 80.9552 83.1669C90.4321 73.0835 103.509 67.1702 117.327 66.7204V66.7204C131.282 66.3848 144.808 71.5645 154.982 81.1396C159.988 85.7864 164.006 91.399 166.792 97.6402C169.579 103.881 171.078 110.623 171.198 117.459C171.591 131.309 166.487 144.75 157.004 154.837C147.522 164.925 134.434 170.835 120.61 171.273L119.555 171.283ZM117.46 74.3971C105.675 74.8099 94.5326 79.8796 86.4681 88.4982C78.4036 97.1167 74.0729 108.583 74.4226 120.391C74.5259 126.097 75.7587 131.726 78.0496 136.951C80.3405 142.177 83.6438 146.895 87.7682 150.832C92.1051 155.018 97.2279 158.302 102.84 160.492C108.452 162.681 114.442 163.734 120.463 163.589C132.258 163.191 143.415 158.126 151.489 149.503C159.562 140.88 163.894 129.402 163.535 117.585C163.428 111.776 162.151 106.048 159.781 100.746C157.41 95.4433 153.995 90.6752 149.739 86.7274C141.007 78.5488 129.425 74.1224 117.474 74.3971H117.46Z" fill="#EF6A34"/>
<path d="M119.625 92.8715C115.975 92.8306 112.355 93.5453 108.993 94.9709C110.642 96.2572 111.844 98.0307 112.43 100.04C113.016 102.049 112.955 104.192 112.257 106.165C111.559 108.138 110.259 109.84 108.541 111.032C106.823 112.223 104.775 112.842 102.686 112.802C101.192 112.777 99.7236 112.411 98.3922 111.733C97.0607 111.054 95.9011 110.081 95.0016 108.886C93.6625 112.015 92.9619 115.381 92.9409 118.785C92.9038 123.93 94.3849 128.971 97.1982 133.275C100.011 137.579 104.031 140.955 108.753 142.978C113.475 145.002 118.689 145.582 123.739 144.647C128.789 143.713 133.451 141.304 137.139 137.723C140.828 134.143 143.378 129.551 144.47 124.524C145.561 119.496 145.146 114.258 143.276 109.466C141.406 104.674 138.165 100.543 133.959 97.5906C129.753 94.6382 124.77 92.9965 119.636 92.8715H119.625Z" fill="#EF6A34"/>
<path d="M102.797 113.085H102.686C101.145 113.066 99.6295 112.693 98.2555 111.995C96.8815 111.297 95.6859 110.292 94.7606 109.058C93.373 107.254 92.628 105.037 92.6441 102.76C92.6873 100.023 93.8126 97.4144 95.773 95.5075C97.7335 93.6006 100.369 92.5507 103.101 92.5881C105.308 92.6142 107.443 93.3776 109.168 94.7575V94.7575C110.84 96.081 112.059 97.8937 112.655 99.9435C113.251 101.993 113.195 104.178 112.494 106.194C111.792 108.211 110.481 109.958 108.743 111.193C107.004 112.428 104.925 113.089 102.794 113.085H102.797ZM102.993 95.1494C100.933 95.1431 98.9555 95.9546 97.4919 97.4062C96.7738 98.1046 96.2014 98.9391 95.808 99.8612C95.4147 100.783 95.2082 101.774 95.2007 102.777C95.1911 104.487 95.753 106.151 96.7969 107.504C97.4527 108.373 98.2868 109.09 99.243 109.608C100.199 110.126 101.255 110.433 102.34 110.507C103.424 110.581 104.512 110.422 105.53 110.039C106.547 109.656 107.471 109.059 108.239 108.288C109.022 107.526 109.633 106.604 110.029 105.585C110.426 104.566 110.6 103.473 110.538 102.381C110.477 101.289 110.183 100.223 109.674 99.2545C109.166 98.2864 108.456 97.4389 107.593 96.7694V96.7694C106.309 95.7411 104.72 95.1711 103.077 95.1494H102.993Z" fill="#EF6A34"/>
</g>
<defs>
<clipPath id="clip0_60_6">
<rect width="238" height="145" fill="white" transform="translate(0 46.5)"/>
</clipPath>
</defs>
</svg>
