<svg width="400" height="155" viewBox="0 0 400 155" fill="none" xmlns="http://www.w3.org/2000/svg">
<g clip-path="url(#clip0_127_2)">
<path d="M144.4 114.64C168.16 115.44 186.08 102.4 187.2 83.6001C188.24 62.9601 167.6 58.4001 151.12 54.7201L150.8 55.9201L151.12 54.7201C139.76 52.1601 130 50.0001 130.4 44.0801C130.72 38.8001 137.36 34.9601 145.52 35.2001C155.52 35.5201 162.88 39.9201 163.84 46.0001C164.08 47.0401 165.36 47.0401 165.92 46.6401C166.56 46.3201 184 36.6401 184 36.6401C184.56 36.3201 184.8 35.6001 184.56 35.0401C178.96 22.8001 164.56 14.8001 146.88 14.2401C125.2 13.5201 108.16 26.0001 107.12 43.4401C105.84 66.5601 126.8 70.8001 143.68 74.3201C156.24 76.8801 163.84 78.8801 163.6 84.4001C163.28 90.1601 155.6 94.2401 145.68 93.8401C136.08 93.5201 128.8 88.8001 127.12 81.7601C127.04 81.3601 126.8 81.1201 126.4 80.9601C126.08 80.8001 125.68 80.8001 125.36 81.0401L107.2 91.1201C106.64 91.4401 106.4 92.1601 106.64 92.7201C112.56 105.84 126.64 114 144.4 114.64Z" fill="#1226AA"/>
<path d="M386.64 45.1202C377.92 36.4802 365.68 31.6802 352.16 31.6802C324.16 31.6802 303.84 51.6802 303.84 79.2802C303.84 108 324.4 128.88 352.64 128.88C371.6 128.88 389.04 118.88 395.04 104.48C395.2 104.16 395.2 103.84 395.04 103.52C394.88 103.2 394.64 102.96 394.32 102.88L375.36 96.6402C374.8 96.4802 374.24 96.6402 374 97.1202C370 103.6 361.04 108.16 352.24 108.16C340.48 108.16 331.52 100.72 328.64 88.5602H398.4C399.04 88.5602 399.52 88.0802 399.6 87.5202L399.76 86.0802C399.84 84.9602 400.08 82.0002 400.08 79.4402C400.08 65.9202 395.28 53.7602 386.64 45.1202ZM328.8 69.6002C332 58.9602 340.64 52.4002 351.6 52.4002C363.04 52.4002 372.08 59.1202 374.96 69.6002H328.8Z" fill="#1226AA"/>
<path d="M293.04 0.240073C292.72 7.26695e-05 292.32 7.26576e-05 291.92 0.0800727L270.48 7.92007C270 8.08007 269.68 8.56007 269.68 9.04007V42.2401C262.16 35.4401 252.32 31.6801 241.6 31.6801C215.28 31.6801 196.16 52.0801 196.16 80.2401C196.16 108.4 215.28 128.8 241.6 128.8C252.96 128.8 263.36 124.64 271.04 117.12L275.04 124.8C275.28 125.2 275.68 125.44 276.08 125.44H292.24C292.88 125.44 293.44 124.88 293.44 124.24V1.20007C293.52 0.800073 293.36 0.400073 293.04 0.240073ZM245.2 106.24C230.48 106.24 219.84 95.2801 219.84 80.2401C219.84 65.2001 230.48 54.2401 245.2 54.2401C259.84 54.2401 270.4 65.2001 270.4 80.2401C270.4 95.2801 259.84 106.24 245.2 106.24Z" fill="#1226AA"/>
<path d="M187.44 123.84C187.2 123.44 186.64 123.36 186.24 123.52C174.48 130 161.04 133.68 146.88 133.68C132.64 133.68 119.28 130 107.52 123.52C107.12 123.28 106.56 123.44 106.32 123.84L95.52 139.68C95.2 140.16 95.36 140.72 95.84 141.04C110.96 149.76 128.4 154.72 146.88 154.72C165.36 154.72 182.8 149.76 197.92 141.04C198.4 140.8 198.56 140.16 198.24 139.68L187.44 123.84Z" fill="#1226AA"/>
<path d="M49.12 31.6802C20.32 31.6802 0.160027 51.6802 0.160027 80.2402C0.0800273 108.8 20.24 128.8 49.12 128.8C77.92 128.8 98.08 108.8 98.08 80.2402C98.08 51.6002 77.92 31.6802 49.12 31.6802ZM49.12 107.28C34.4 107.28 23.76 95.9202 23.76 80.2402C23.76 64.5602 34.4 53.2002 49.12 53.2002C63.84 53.2002 74.48 64.5602 74.48 80.2402C74.48 95.9202 63.76 107.28 49.12 107.28Z" fill="#1226AA"/>
</g>
<defs>
<clipPath id="clip0_127_2">
<rect width="400" height="154.72" fill="white"/>
</clipPath>
</defs>
</svg>
