<svg width="400" height="45" viewBox="0 0 400 45" fill="none" xmlns="http://www.w3.org/2000/svg">
<g clip-path="url(#clip0_127_9)">
<path d="M74.902 23.0065C74.8234 22.6279 74.7141 22.2563 74.5752 21.8954C74.1067 20.3504 73.3091 18.9253 72.2372 17.718C71.1654 16.5108 69.8447 15.55 68.366 14.902C66.5231 14.1449 64.5402 13.7885 62.549 13.8562C60.8132 13.8403 59.0879 14.1279 57.451 14.7059C55.7981 15.2779 54.2839 16.1909 53.0065 17.3856C51.6574 18.6788 50.5895 20.2363 49.8693 21.9608C49.0375 24.0598 48.6373 26.3049 48.6928 28.5621C48.6087 31.2216 49.0761 33.8698 50.0654 36.3399C50.8451 38.2258 52.0535 39.9042 53.5948 41.2418C55.0032 42.4686 56.6836 43.3423 58.4967 43.7908C60.3341 44.2586 62.2217 44.5 64.1176 44.5098C65.9743 44.5639 67.8277 44.3212 69.6078 43.7908C70.9006 43.4507 72.1193 42.8746 73.2026 42.0915C73.7255 41.6993 74.8366 40.6536 74.8366 40.6536L71.634 35.7516L71.1765 36.0784C70.6772 36.4933 70.1283 36.8446 69.5425 37.1242C68.8721 37.4693 68.1721 37.7537 67.451 37.9739C66.5743 38.1913 65.6745 38.301 64.7712 38.3007C62.1569 38.3007 60.1961 37.5817 58.9542 36.0784C57.7284 34.4712 57.0012 32.5395 56.8627 30.5229H74.9673C75.0302 30.2443 75.0523 29.9581 75.0327 29.6732C75.0327 29.3464 75.098 28.9542 75.098 28.6274V26.732C75.2654 25.4888 75.1989 24.2253 74.902 23.0065M56.8627 25.817C56.7765 24.0979 57.3099 22.4049 58.366 21.0458C58.8559 20.4758 59.4702 20.0262 60.1615 19.7315C60.8528 19.4369 61.6026 19.3051 62.3529 19.3464C64.3137 19.3464 65.6863 19.8693 66.4052 21.1111C67.2307 22.5362 67.6172 24.1732 67.5163 25.817H56.8627ZM27.9739 14.7059C28.0416 17.0047 27.5716 19.2875 26.6013 21.3725C25.7709 23.1181 24.5116 24.6247 22.9412 25.7516C21.3682 26.9383 19.5651 27.7841 17.6471 28.2353C15.5509 28.7593 13.4021 29.0444 11.2418 29.085H8.10458V43.268H0V2.87582L5.62092 2.4183C7.51634 2.28758 9.28105 2.28758 10.7843 2.28758C16.732 2.28758 21.0458 3.33333 23.7909 5.42484C26.5359 7.51634 27.9739 10.6536 27.9739 14.7059ZM19.4771 15.1634C19.4771 12.6797 18.7582 10.915 17.2549 9.86928C15.5708 8.7631 13.5816 8.21436 11.5686 8.30065C10.433 8.30273 9.2983 8.3682 8.16993 8.49673V23.1373H10.3268C13.268 23.1373 15.5556 22.549 17.1242 21.3725C18.6928 20.1961 19.4771 18.1046 19.4771 15.1634M198.889 16.1438C197.74 15.2943 196.421 14.7027 195.022 14.4094C193.623 14.1162 192.178 14.1281 190.784 14.4444V42.4183C192.157 43.1373 194.837 45.098 198.889 44.1176V16.1438ZM104.575 14.9673C99.5425 12.8758 96.0784 15.2288 96.0784 15.2288L94.902 19.0196L93.2026 25.2941L90.4575 35.2288L90.1961 35.9477V35.7516L88.4314 29.281L85.4902 18.9542L84.3137 15.2288C84.3137 15.2288 80.7843 12.8105 75.5556 15.098L75.6863 15.4248L85.6863 44.1176H94.7712L104.837 15.098C104.837 15.0327 104.706 15.0327 104.575 14.9673M186.405 35.4248L185.49 36.3399L184.052 37.2549C183.433 37.5945 182.774 37.8578 182.092 38.0392C181.303 38.2526 180.49 38.3625 179.673 38.366C178.479 38.3956 177.293 38.1496 176.209 37.6471C175.29 37.1728 174.503 36.4763 173.922 35.6209C173.313 34.7104 172.891 33.6887 172.68 32.6144C172.41 31.4133 172.278 30.1853 172.288 28.9542C172.204 26.7387 172.796 24.5501 173.987 22.6797C175.098 21.0458 177.059 20.1961 179.673 20.1961C181.136 20.1606 182.582 20.5219 183.856 21.2418C184.927 21.7708 185.899 22.4781 186.732 23.3333V23.3333C188.301 19.6078 187.516 16.9935 187.32 16.4706L186.601 15.9477C185.517 15.2675 184.323 14.781 183.072 14.5098C181.556 14.1276 179.995 13.9517 178.431 13.9869C176.906 14.0021 175.389 14.2219 173.922 14.6405C172.186 15.0877 170.562 15.8888 169.15 16.9935C167.556 18.2375 166.26 19.8232 165.359 21.634C164.314 23.5948 163.856 26.0784 163.856 29.1503C163.856 32.2222 164.314 35.0327 165.294 37.0588C166.063 38.7972 167.224 40.3336 168.687 41.5471C170.15 42.7606 171.875 43.6181 173.725 44.0523C175.288 44.4294 176.889 44.6268 178.497 44.6405C180.331 44.6812 182.161 44.4387 183.922 43.9216C185.051 43.5642 186.128 43.0587 187.124 42.4183C187.667 40.072 187.414 37.6116 186.405 35.4248M47.7124 16.5359C47.5375 16.2593 47.3408 15.997 47.1242 15.7516C46.8983 15.5191 46.6582 15.3008 46.4052 15.098L45.4902 14.7059L43.9869 14.3137L42.9412 14.183H42.4183C40.8643 14.1288 39.3089 14.2383 37.7778 14.5098C35.9348 14.8762 34.208 15.6835 32.7451 16.8627C29.9346 19.0196 29.6732 22.7451 29.6732 23.6601V23.8562V41.2418V43.464H37.7778V24.7712C37.7749 24.2701 37.8851 23.7749 38.1001 23.3222C38.3151 22.8696 38.6294 22.4713 39.0196 22.1569C39.8951 21.4167 41.0107 21.0216 42.1569 21.0458C42.9872 21.0133 43.8141 21.1697 44.5752 21.5033C45.3198 21.8581 46.0215 22.2966 46.6667 22.8105L46.9935 22.1569C47.6774 20.3672 47.9239 18.4401 47.7124 16.5359ZM259.085 20.1961C259.039 19.8657 258.973 19.5384 258.889 19.2157C258.536 18.1846 257.955 17.2464 257.19 16.4706C256.911 16.1798 256.604 15.9171 256.275 15.6863C254.666 14.542 252.805 13.8021 250.85 13.5294H245.817C234.837 14.4444 233.007 20.4575 233.007 20.4575V43.3333H241.83V22.549C242.857 21.3967 244.281 20.6734 245.817 20.5229C246.332 20.4068 246.863 20.3846 247.386 20.4575C248.151 20.4497 248.908 20.6057 249.608 20.915C250.16 21.1942 250.599 21.6561 250.85 22.2222C251.123 22.8415 251.278 23.5066 251.307 24.183C251.373 24.9673 251.373 25.7516 251.373 26.6667V43.3333H259.477V23.0719C259.346 22.3529 259.216 20.9804 259.085 20.1961ZM160.458 20.1961C160.42 19.8857 160.355 19.5794 160.261 19.281C159.933 18.2383 159.349 17.2945 158.562 16.5359C158.284 16.2452 157.977 15.9825 157.647 15.7516C156.031 14.6205 154.174 13.882 152.222 13.5948C151.765 13.5294 148.039 13.5294 147.19 13.5948C136.209 14.5098 134.379 20.5229 134.379 20.5229V43.3987H143.203V22.6144C144.23 21.4621 145.653 20.7388 147.19 20.5882C147.704 20.4721 148.236 20.45 148.758 20.5229C149.526 20.4835 150.291 20.641 150.98 20.9804C151.533 21.2596 151.972 21.7215 152.222 22.2876C152.496 22.9069 152.651 23.5719 152.68 24.2484C152.745 25.0327 152.745 25.817 152.745 26.732V43.3987H160.85V23.1373C160.719 22.3529 160.523 20.9804 160.458 20.1961M130.523 23.0065C130.444 22.6279 130.335 22.2563 130.196 21.8954C129.728 20.3504 128.93 18.9253 127.858 17.718C126.786 16.5108 125.466 15.55 123.987 14.902C122.144 14.1449 120.161 13.7885 118.17 13.8562C116.434 13.8403 114.709 14.1279 113.072 14.7059C111.419 15.2779 109.905 16.1909 108.627 17.3856C107.278 18.6788 106.21 20.2363 105.49 21.9608C104.658 24.0598 104.258 26.3049 104.314 28.5621C104.243 31.2148 104.686 33.8562 105.621 36.3399C106.402 38.2084 107.584 39.882 109.085 41.2418C110.493 42.4686 112.174 43.3423 113.987 43.7908C115.824 44.2586 117.712 44.5 119.608 44.5098C121.465 44.5639 123.318 44.3212 125.098 43.7908C126.391 43.4507 127.609 42.8746 128.693 42.0915C129.216 41.6993 130.327 40.6536 130.327 40.6536L127.124 35.7516L126.732 36.0784C126.233 36.4933 125.684 36.8446 125.098 37.1242C124.428 37.4693 123.728 37.7537 123.007 37.9739C122.13 38.1913 121.23 38.301 120.327 38.3007C117.647 38.3007 115.752 37.5817 114.51 36.0784C113.284 34.4712 112.557 32.5395 112.418 30.5229H130.588C130.651 30.2443 130.673 29.9581 130.654 29.6732C130.654 29.3464 130.719 28.9542 130.719 28.6274V26.732C130.886 25.4888 130.82 24.2253 130.523 23.0065M112.484 25.817C112.397 24.0979 112.931 22.4049 113.987 21.0458C114.477 20.4758 115.091 20.0262 115.782 19.7315C116.474 19.4369 117.224 19.3051 117.974 19.3464C119.935 19.3464 121.307 19.8693 122.026 21.1111C122.852 22.5362 123.238 24.1732 123.137 25.817H112.484ZM229.542 23.268C229.07 21.5292 228.247 19.9055 227.124 18.4967L226.601 17.9085C226.266 19.3041 225.691 20.6309 224.902 21.8301C224.106 23.1025 222.944 24.1049 221.569 24.7059C221.686 25.0683 221.774 25.44 221.83 25.817C222.017 26.896 222.104 27.9899 222.092 29.085C222.102 30.2016 222.015 31.317 221.83 32.4183C221.683 33.441 221.374 34.4338 220.915 35.3595C220.487 36.1973 219.859 36.9159 219.085 37.451C218.181 38 217.136 38.2726 216.078 38.2353C215.087 38.2878 214.102 38.0418 213.252 37.5292C212.401 37.0166 211.724 36.2608 211.307 35.3595C210.818 34.446 210.508 33.4478 210.392 32.4183C210.208 31.3389 210.12 30.2453 210.131 29.1503C210.139 28.0749 210.249 27.0027 210.458 25.9477C210.635 24.9654 210.966 24.017 211.438 23.1373C211.89 22.3141 212.542 21.6175 213.333 21.1111H213.464C213.854 20.4127 214.203 19.6926 214.51 18.9542C214.837 18.0392 215.294 16.5359 215.621 15.1634L215.948 14.0523C213.91 14.076 211.894 14.4748 210 15.2288C208.247 15.9555 206.699 17.0999 205.49 18.5621C204.284 19.9799 203.373 21.6242 202.81 23.3987C202.201 25.2998 201.892 27.2845 201.895 29.281C201.886 31.247 202.15 33.2048 202.68 35.098C203.174 36.861 204.018 38.5061 205.163 39.9346C206.358 41.3561 207.854 42.4946 209.542 43.268C211.628 44.1457 213.883 44.5476 216.144 44.4444C218.406 44.4865 220.653 44.0638 222.745 43.2026C224.48 42.4458 226.005 41.2796 227.19 39.8039C228.347 38.3591 229.193 36.69 229.673 34.902C230.203 33.0088 230.467 31.051 230.458 29.085C230.365 27.1185 230.058 25.1679 229.542 23.268V23.268ZM215.163 21.8301C215.163 21.8954 215.163 21.8954 215.229 21.9608L215.359 22.0915C215.819 22.3945 216.328 22.6156 216.863 22.7451H217.32C219.085 22.9412 221.503 22.6797 222.941 20.3268C224.379 17.9739 225.229 12.0915 227.19 9.41176L227.582 8.88889V8.75817C227.582 8.62745 227.647 8.43137 227.386 8.30065C227.124 8.16993 222.745 5.88235 219.869 10.1961C218.562 12.1569 217.582 18.366 216.34 20.5229C216.131 20.8547 215.838 21.1253 215.49 21.3072L215.294 21.4379C215.163 21.5686 215.098 21.634 215.098 21.7647M336.732 0.849673C335.647 0.333589 334.468 0.0444589 333.268 0L331.111 0L330.131 0.130719V39.6078C330.98 41.2418 333.66 43.9869 338.431 44.0523V2.02614C337.924 1.60375 337.377 1.23163 336.797 0.915033L336.732 0.849673ZM398.301 0.849673C397.216 0.333589 396.037 0.0444589 394.837 0L392.68 0L391.699 0.130719V16.2745C390.931 15.5285 390.049 14.9106 389.085 14.4444C387.683 13.763 386.132 13.4482 384.575 13.5294C383.006 13.5426 381.454 13.8531 380 14.4444C378.522 15.0527 377.202 15.9918 376.144 17.1895C374.932 18.6033 374.02 20.2488 373.464 22.0261C372.759 24.3557 372.428 26.7824 372.484 29.2157C372.423 31.6064 372.754 33.9909 373.464 36.2745C373.996 37.9698 374.888 39.5304 376.078 40.8497C377.116 41.9338 378.391 42.7617 379.804 43.268C381.216 43.7391 382.694 43.9818 384.183 43.9869C385.99 44.0424 387.784 43.6612 389.412 42.8758C390.385 42.3654 391.286 41.728 392.092 40.9804C393.203 42.4837 395.817 43.9869 400 44.0523V2.02614C399.493 1.60375 398.945 1.23163 398.366 0.915033L398.301 0.849673ZM391.765 35.3595C391.775 35.7896 391.664 36.214 391.445 36.584C391.225 36.9539 390.906 37.2544 390.523 37.451C389.597 37.9403 388.563 38.1876 387.516 38.1699C386.433 38.2158 385.354 37.9912 384.379 37.5163C383.575 37.0618 382.9 36.4094 382.418 35.6209C381.904 34.7077 381.55 33.7128 381.373 32.6797C381.155 31.4058 381.046 30.1158 381.046 28.8235C381.046 25.9477 381.569 23.7255 382.549 22.1569C383.529 20.5882 385.163 19.8693 387.255 19.8693C388.212 19.838 389.16 20.0637 390 20.5229C390.609 20.8491 391.179 21.2438 391.699 21.6993V35.3595H391.765ZM369.346 19.3464V16.3399C368.83 15.916 368.258 15.5642 367.647 15.2941C366.547 14.7467 365.345 14.435 364.118 14.3791H361.961L360.98 14.5098V34.1176C360.98 35.0327 360.458 35.817 359.346 36.4706C358.172 37.1309 356.836 37.4479 355.49 37.3856C354.638 37.4357 353.785 37.2787 353.007 36.9281C352.436 36.6522 351.975 36.1916 351.699 35.6209C351.403 35.0094 351.247 34.3396 351.242 33.6601C351.176 32.8758 351.176 32.0261 351.176 31.1765V19.1503V16.3399C350.66 15.916 350.088 15.5642 349.477 15.2941C348.377 14.7467 347.175 14.435 345.948 14.3791H343.791L342.81 14.5098V31.5033C342.81 32.549 342.81 33.6601 342.876 34.7059C342.934 35.7378 343.065 36.7643 343.268 37.7778C343.596 39.552 344.546 41.1511 345.948 42.2876C347.32 43.3987 349.477 43.9869 352.353 43.9869C354.338 44.0787 356.315 43.6743 358.105 42.8105C359.183 42.2388 360.155 41.4873 360.98 40.5882L361.307 41.0457C362.345 42.2232 363.711 43.065 365.229 43.464C366.483 43.8206 367.781 43.9967 369.085 43.9869V43.464L369.346 19.3464ZM325.098 19.8039C324.714 18.4827 324.019 17.2726 323.072 16.2745C322.007 15.301 320.732 14.5854 319.346 14.183L317.909 13.8562C316.547 13.6394 315.17 13.5301 313.791 13.5294C312.279 13.5244 310.769 13.6556 309.281 13.9216C307.984 14.1359 306.714 14.4864 305.49 14.9673L305.163 15.098H305.033L304.51 15.2941C303.904 15.5737 303.333 15.9247 302.81 16.3399L302.418 16.732V16.8627C302.284 18.7212 302.742 20.5744 303.726 22.1569C305.033 21.4379 306.34 20.7843 307.712 20.1961C309.186 19.6024 310.765 19.3134 312.353 19.3464C314.248 19.3464 315.556 19.6732 316.405 20.3268C317.255 20.9804 317.647 22.0915 317.647 23.6601V24.8366H314.902C313.464 24.902 311.83 25.098 310.065 25.3595C308.355 25.6029 306.698 26.1332 305.163 26.9281C303.689 27.6324 302.41 28.6871 301.438 30C300.401 31.4685 299.873 33.236 299.935 35.0327C299.886 36.4954 300.177 37.9495 300.784 39.281C301.288 40.3652 302.051 41.3081 303.007 42.0261C303.901 42.7181 304.923 43.2287 306.013 43.5294C307.075 43.8373 308.175 43.9914 309.281 43.9869C311.117 44.0402 312.943 43.7061 314.641 43.0065C315.86 42.5069 316.97 41.7743 317.909 40.8497L318.366 41.4379C319.346 42.4837 321.176 43.5294 323.856 43.8562L325.49 43.9869V24.7712C325.678 23.1056 325.544 21.4195 325.098 19.8039V19.8039ZM317.909 35.2941C317.887 35.6864 317.724 36.0576 317.451 36.3399C317.096 36.7534 316.677 37.1065 316.209 37.3856C315.641 37.7363 315.025 38.0006 314.379 38.1699C313.657 38.379 312.909 38.489 312.157 38.4967C310.588 38.4967 309.542 38.1046 308.889 37.3203C308.229 36.5094 307.882 35.4893 307.909 34.4444C307.875 33.5608 308.127 32.69 308.627 31.9608C309.118 31.2872 309.77 30.7478 310.523 30.3922C311.359 29.9537 312.266 29.6661 313.203 29.5425L316.209 29.1503H317.909V35.2941V35.2941ZM297.124 26.2745C296.454 25.0013 295.544 23.8694 294.444 22.9412C293.352 22.0245 292.115 21.2956 290.784 20.7843L286.797 19.2157L283.987 18.1046C283.148 17.7572 282.34 17.3418 281.569 16.8627C280.915 16.4386 280.359 15.8819 279.935 15.2288C279.535 14.5575 279.331 13.7877 279.346 13.0065C279.315 12.2029 279.519 11.4077 279.935 10.719C280.327 10.1304 280.868 9.65673 281.503 9.3464C282.159 9.00032 282.865 8.7578 283.595 8.62745C284.35 8.49739 285.116 8.4318 285.882 8.43137C287.641 8.44047 289.378 8.81902 290.98 9.54248C292.392 10.1503 293.73 10.9178 294.967 11.8301C296.177 10.0352 296.815 7.91608 296.797 5.75163V5.62091H296.667C296.377 5.27197 296.022 4.98329 295.621 4.77124C295.171 4.44039 294.69 4.15573 294.183 3.92157V3.92157C293.439 3.57145 292.675 3.2659 291.895 3.00654C290.864 2.70743 289.817 2.46739 288.758 2.28758C287.528 2.07568 286.281 1.96637 285.033 1.96078C283.159 1.90836 281.288 2.12853 279.477 2.61438C277.801 3.0817 276.228 3.85749 274.837 4.90196C273.487 5.86998 272.388 7.1475 271.634 8.62745C270.824 10.2259 270.42 11.9992 270.458 13.7908C270.395 15.5213 270.73 17.2432 271.438 18.8235C272.047 20.0989 272.942 21.2171 274.052 22.0915C275.131 22.977 276.344 23.6832 277.647 24.183C278.954 24.7059 280.261 25.2288 281.569 25.6209L284.575 26.732C285.475 27.0611 286.332 27.5001 287.124 28.0392C287.823 28.5316 288.422 29.1527 288.889 29.8693C289.355 30.6829 289.582 31.612 289.542 32.549C289.58 33.3831 289.401 34.2127 289.023 34.9572C288.646 35.7017 288.081 36.3356 287.386 36.7974C286.73 37.2337 285.998 37.5441 285.229 37.7124C284.417 37.9217 283.583 38.0315 282.745 38.0392C281.665 38.0461 280.589 37.9143 279.543 37.6471C278.612 37.3913 277.695 37.0859 276.797 36.732C275.993 36.3748 275.226 35.9369 274.51 35.4248L272.614 34.0523C271.294 36.0702 270.611 38.4385 270.654 40.8497V40.9804L270.915 41.3072L271.699 41.9608L273.464 42.8105L275.686 43.5948C277.979 44.258 280.359 44.5666 282.745 44.5098C284.846 44.539 286.939 44.2526 288.954 43.6601C290.722 43.1451 292.367 42.278 293.791 41.1111C295.156 39.988 296.232 38.5534 296.928 36.9281C297.691 35.131 298.07 33.194 298.039 31.2418C298.186 29.5339 297.87 27.818 297.124 26.2745V26.2745Z" fill="#E20172"/>
</g>
<defs>
<clipPath id="clip0_127_9">
<rect width="400" height="44.6471" fill="white"/>
</clipPath>
</defs>
</svg>
