<svg width="400" height="130" viewBox="0 0 400 130" fill="none" xmlns="http://www.w3.org/2000/svg">
<path d="M16.592 52.6986C6.08536 61.4986 3.49868 75.7386 10.832 84.4586C18.1654 93.1786 32.6187 93.1519 43.1254 84.3519C53.632 75.5519 56.2187 61.3119 48.8853 52.5653C41.552 43.8186 27.0987 43.8719 16.592 52.6986ZM42.5654 80.0853C34.1387 87.1519 22.5653 87.1786 16.6987 80.1653C10.832 73.1519 12.8853 61.7653 21.312 54.6986C29.7387 47.6319 41.312 47.6053 47.1787 54.6186C53.0453 61.6319 51.0187 72.9919 42.5654 80.0853Z" fill="#314080"/>
<path d="M22.4321 55.6587C14.7788 62.0854 12.9121 72.4321 18.2454 78.8054C23.5787 85.1787 34.1121 85.1521 41.7654 78.7254C49.4187 72.3254 51.3121 61.9521 45.9787 55.5787C40.6454 49.2054 30.0854 49.2587 22.4321 55.6587ZM41.3654 75.6054C35.2054 80.7521 26.7788 80.7787 22.5121 75.6587C18.2454 70.5387 19.7387 62.2721 25.8987 57.1254C32.0321 51.9787 40.4587 51.9521 44.7254 57.0721C48.9921 62.1654 47.4987 70.4854 41.3654 75.6054Z" fill="#314080"/>
<path d="M52.5121 47.0454C60.5921 55.0987 74.9921 53.712 84.6454 43.9787C94.2987 34.2454 95.5521 19.8454 87.4454 11.8187C79.3387 3.79202 64.9654 5.15202 55.3121 14.912C45.6587 24.672 44.4321 39.0454 52.5121 47.0454ZM54.6987 45.5254C48.2187 39.0987 49.2321 27.552 56.9654 19.7654C64.6987 11.9787 76.2187 10.8587 82.6987 17.312C89.1787 23.7654 88.1921 35.2854 80.4587 43.072C72.7254 50.8587 61.1787 51.9787 54.6987 45.5254Z" fill="#314080"/>
<path d="M55.7654 44.4053C61.6587 50.2453 72.1654 49.232 79.1787 42.1653C86.2187 35.072 87.1254 24.592 81.2054 18.7253C75.2854 12.8586 64.8321 13.872 57.7921 20.9653C50.7787 28.0586 49.8454 38.5386 55.7654 44.4053ZM57.3654 43.2853C52.6187 38.6186 53.3654 30.192 58.9921 24.512C64.6187 18.832 73.0187 18.032 77.7387 22.7253C82.4587 27.4186 81.7387 35.8186 76.0854 41.4986C70.4854 47.1786 62.0854 47.9786 57.3654 43.2853Z" fill="#314080"/>
<path d="M36.9921 16.6454C30.2454 9.73869 20.1121 8.69869 14.3788 14.2987C8.64543 19.8987 9.44541 30.032 16.1921 36.9654C22.9387 43.8987 33.0454 44.912 38.8054 39.312C44.5654 33.712 43.7121 23.552 36.9921 16.6454ZM19.1521 36.3254C13.7387 30.8054 13.0988 22.672 17.7121 18.1654C22.3254 13.6587 30.4054 14.512 35.8188 20.032C41.2054 25.552 41.8721 33.6854 37.2587 38.192C32.6454 42.7254 24.5387 41.872 19.1521 36.3254Z" fill="#314080"/>
<path d="M35.2054 20.9119C30.2987 15.8719 22.9121 15.1253 18.7521 19.2053C14.5654 23.3119 15.1521 30.6719 20.0587 35.7119C24.9654 40.7519 32.3254 41.4986 36.5387 37.4186C40.7254 33.3386 40.112 25.9253 35.2054 20.9119ZM22.192 35.2586C18.272 31.2319 17.792 25.312 21.1254 22.032C24.4854 18.752 30.4054 19.3653 34.3254 23.392C38.2454 27.4186 38.7254 33.3386 35.3654 36.6186C32.032 39.8986 26.1387 39.2853 22.192 35.2586Z" fill="#314080"/>
<path d="M58.5653 59.7119C53.3653 65.8186 55.0987 75.8453 62.432 82.0853C69.7653 88.3253 79.952 88.4586 85.152 82.3519C90.352 76.2453 88.6187 66.2186 81.2853 59.9519C73.952 53.6853 63.7653 53.6053 58.5653 59.7119ZM59.7387 61.1519C63.8987 56.2719 72.0587 56.3519 77.952 61.3653C83.8187 66.3786 85.232 74.4053 81.0453 79.3119C76.8587 84.2186 68.7253 84.1119 62.832 79.1253C56.9653 74.1119 55.5787 66.0586 59.7387 61.1519Z" fill="#314080"/>
<path d="M60.592 61.8452C56.8053 66.2986 58.0587 73.6052 63.4187 78.1652C68.7787 82.7252 76.1654 82.8052 79.9787 78.3519C83.7654 73.8986 82.512 66.5919 77.152 62.0319C71.8187 57.4452 64.3787 57.3652 60.592 61.8452ZM61.472 62.8852C64.512 59.3119 70.4587 59.3919 74.7254 63.0452C79.0187 66.6986 80.032 72.5652 76.992 76.1119C73.952 79.6586 68.0053 79.6052 63.7387 75.9519C59.4453 72.2986 58.432 66.4586 61.472 62.8852Z" fill="#314080"/>
<path d="M225.205 49.6852C225.205 43.3652 229.045 37.1252 238.432 37.1252C247.819 37.1252 251.659 43.3652 251.659 49.6852C251.659 59.0986 244.885 62.2986 238.432 62.2986C231.979 62.2986 225.205 59.0719 225.205 49.6852ZM246.112 49.5786C246.219 45.3386 242.859 41.8186 238.619 41.7119C234.379 41.6052 230.859 44.9652 230.752 49.2052C230.752 49.3386 230.752 49.4452 230.752 49.5786C230.752 54.5919 233.552 57.6319 238.432 57.6319C243.285 57.6319 246.112 54.6186 246.112 49.5786Z" fill="#314080"/>
<path d="M297.605 42.0853C296.565 39.1253 293.872 36.5919 286.005 36.5919C281.632 36.5919 277.232 37.6853 277.232 40.7253C277.232 42.1386 278.032 43.6319 284.645 44.4586L292.485 45.6319C299.899 46.7519 304.272 49.6319 304.272 55.1786C304.272 62.9919 296.805 65.8986 287.979 65.8986C273.792 65.8986 270.325 58.8853 269.552 56.4053L275.765 54.4586C276.965 56.8586 279.419 60.3786 288.139 60.3786C293.419 60.3786 297.792 58.6453 297.792 55.7919C297.792 53.6586 295.339 52.2453 290.619 51.6586L282.699 50.5653C275.045 49.5253 270.779 46.1919 270.779 41.1519C270.779 31.2319 283.659 31.2319 286.192 31.2319C300.432 31.2319 302.885 37.8186 303.712 40.1119L297.605 42.0853Z" fill="#314080"/>
<path d="M129.819 42.0853C128.779 39.1253 126.085 36.5919 118.219 36.5919C113.845 36.5919 109.445 37.6853 109.445 40.7253C109.445 42.1386 110.245 43.6319 116.859 44.4586L124.672 45.6319C132.085 46.7519 136.459 49.6319 136.459 55.1786C136.459 62.9919 128.992 65.8986 120.165 65.8986C105.979 65.8986 102.512 58.8853 101.739 56.4053L107.979 54.4586C109.152 56.8586 111.605 60.3786 120.352 60.3786C125.632 60.3786 130.005 58.6453 130.005 55.7919C130.005 53.6586 127.552 52.2453 122.832 51.6586L114.912 50.5653C107.259 49.5253 102.992 46.1919 102.992 41.1519C102.992 31.2319 115.872 31.2319 118.405 31.2319C132.645 31.2319 135.099 37.8186 135.925 40.1119L129.819 42.0853Z" fill="#314080"/>
<path d="M162.539 61.4453L157.099 61.472C157.099 61.472 157.099 59.5253 157.099 59.0986C154.005 61.072 150.459 62.1653 146.779 62.272C143.659 62.272 137.632 60.9386 137.632 55.152C137.632 47.2053 149.499 46.0586 157.099 45.632V44.592C157.099 42.7786 155.472 41.4986 150.992 41.4986C145.979 41.4986 144.939 43.3386 144.619 44.6186H138.939C140.272 38.2186 146.539 37.0986 150.939 37.0986C162.325 37.0986 162.539 42.6453 162.539 45.8986V61.4453V61.4453ZM157.072 49.5786C154.219 49.6853 151.365 50.0853 148.592 50.752C145.205 51.552 143.632 52.6986 143.579 54.752C143.525 56.7786 144.859 58.032 147.525 58.032C150.912 57.9253 154.219 56.8586 157.045 54.9653V49.5786H157.072Z" fill="#314080"/>
<path d="M164.539 37.8986H169.899V40.8319C172.139 38.3519 175.365 36.9919 178.725 37.0986C183.659 37.0986 187.952 39.1519 187.952 46.3786V61.4986H182.512V48.4053C182.512 43.7386 181.099 41.7653 177.445 41.7653C174.512 41.5519 171.685 42.8586 169.979 45.2319V61.4986H164.539V37.8986Z" fill="#314080"/>
<path d="M338.379 30.752H332.939V62.6986H338.379V30.752Z" fill="#314080"/>
<path d="M364.165 61.4987H358.805V58.5387C356.565 61.0453 353.312 62.4053 349.979 62.272C345.072 62.272 340.752 60.192 340.752 52.992V37.8987H346.219V50.992C346.219 55.632 347.605 57.632 351.259 57.632C354.192 57.8453 357.019 56.5387 358.752 54.1653V37.8987H364.192L364.165 61.4987Z" fill="#314080"/>
<path d="M387.685 58.4586C385.232 60.9919 381.845 62.3786 378.325 62.2986C371.632 62.4853 366.059 57.2053 365.872 50.5119C365.872 50.1919 365.872 49.8719 365.872 49.5519C365.579 42.9919 370.672 37.4186 377.232 37.1253C377.659 37.0986 378.085 37.0986 378.512 37.1253C381.819 37.0719 385.045 38.2186 387.552 40.3786V29.5786H392.992V61.5253H387.685V58.4586ZM387.579 45.0186C385.472 42.9653 382.645 41.8186 379.712 41.7653C375.419 41.4986 371.685 44.7519 371.419 49.0719C371.392 49.2853 371.392 49.5253 371.392 49.7386C371.259 53.9786 374.592 57.5253 378.859 57.6586C379.099 57.6586 379.312 57.6586 379.552 57.6586C382.565 57.5253 385.419 56.3253 387.579 54.2186V45.0186Z" fill="#314080"/>
<path d="M330.592 61.4453L325.152 61.472C325.152 61.472 325.152 59.5253 325.152 59.0986C322.059 61.072 318.485 62.1653 314.832 62.272C311.712 62.272 305.685 60.9386 305.685 55.152C305.685 47.2053 317.552 46.0586 325.152 45.632V44.592C325.152 42.7786 323.525 41.4986 319.045 41.4986C314.032 41.4986 312.992 43.3386 312.672 44.6186H307.019C308.325 38.2186 314.619 37.0986 319.019 37.0986C330.379 37.0986 330.619 42.6453 330.619 45.8986L330.592 61.4453ZM325.152 49.5786C322.299 49.6853 319.445 50.0853 316.672 50.752C313.285 51.552 311.685 52.6986 311.659 54.752C311.605 56.7786 312.939 58.032 315.605 58.032C319.019 57.9253 322.299 56.8586 325.125 54.9653V49.5786H325.152Z" fill="#314080"/>
<path d="M219.365 55.2053C216.992 58.7253 212.912 60.672 208.699 60.3787C201.605 60.3787 196.112 56.3787 196.112 48.7787C196.112 41.8987 199.925 36.7787 209.072 36.7787C215.979 36.7787 218.725 40.4853 219.525 42.112L225.339 40.0853C223.845 36.6453 219.845 31.2053 208.725 31.2053C195.579 31.2053 189.525 38.3787 189.525 48.032C189.525 60.0853 197.765 65.8987 208.219 65.8987C219.152 65.8987 223.579 61.2853 225.419 57.312L219.365 55.2053Z" fill="#314080"/>
<path d="M268.272 37.232C267.792 37.1787 267.312 37.1253 266.859 37.1253C263.525 36.912 260.352 38.592 258.619 41.4453H258.485V37.9253H253.045V61.5253H258.485V48.992C258.539 47.3387 258.539 42.672 265.472 42.672C266.405 42.672 267.365 42.7787 268.272 42.992V37.232Z" fill="#314080"/>
<path d="M178.885 113.285H6.672V114.832H178.885V113.285Z" fill="#314080"/>
<path d="M202.352 118.672C200.912 119.392 199.312 119.765 197.685 119.739C194.459 119.739 191.845 117.125 191.845 113.899C191.845 110.672 194.459 108.059 197.685 108.059C199.285 107.952 200.885 108.459 202.112 109.499L200.379 111.392C199.685 110.645 198.699 110.272 197.685 110.352C195.712 110.432 194.165 112.085 194.219 114.059C194.272 115.952 195.792 117.445 197.685 117.525C198.485 117.552 199.285 117.339 200.005 116.965V115.125H198.005V112.859H202.352V118.672V118.672Z" fill="#314080"/>
<path d="M204.192 111.819H206.539V113.045H206.565C206.939 112.165 207.819 111.605 208.752 111.632C209.019 111.632 209.285 111.659 209.552 111.712V113.872C209.232 113.765 208.885 113.712 208.539 113.712C206.752 113.712 206.512 114.752 206.512 116.272V119.472H204.165V111.819H204.192Z" fill="#314080"/>
<path d="M217.952 119.472H215.685V118.432H215.659C215.205 119.232 214.352 119.685 213.419 119.659C211.019 119.659 210.592 118.085 210.592 116.032V111.819H212.939V115.552C212.939 116.432 212.965 117.579 214.165 117.579C215.365 117.579 215.579 116.619 215.579 115.632V111.819H217.925V119.472H217.952Z" fill="#314080"/>
<path d="M219.845 111.819H222.005V112.832H222.032C222.592 112.085 223.445 111.659 224.379 111.632C226.405 111.579 228.085 113.179 228.139 115.179C228.139 115.312 228.139 115.445 228.139 115.552C228.325 117.605 226.832 119.419 224.779 119.605C224.725 119.605 224.699 119.605 224.645 119.605C223.712 119.685 222.832 119.312 222.219 118.592H222.192V122.992H219.845V111.819ZM223.899 117.579C224.965 117.605 225.845 116.752 225.872 115.685C225.899 114.619 225.045 113.739 223.979 113.712C222.912 113.685 222.032 114.539 222.005 115.605C222.005 115.632 222.005 115.632 222.005 115.659C221.925 116.645 222.645 117.499 223.632 117.579C223.712 117.579 223.819 117.579 223.899 117.579Z" fill="#314080"/>
<path d="M233.472 111.632C235.685 111.765 237.365 113.659 237.259 115.872C237.125 118.085 235.232 119.765 233.019 119.659C230.885 119.525 229.232 117.792 229.232 115.659C229.205 113.445 230.992 111.659 233.179 111.632C233.285 111.632 233.392 111.632 233.472 111.632ZM233.472 117.579C234.539 117.605 235.419 116.752 235.445 115.685C235.472 114.619 234.619 113.739 233.552 113.712C232.485 113.685 231.605 114.539 231.579 115.605C231.579 115.632 231.579 115.632 231.579 115.659C231.499 116.645 232.219 117.499 233.205 117.579C233.312 117.579 233.392 117.579 233.472 117.579Z" fill="#314080"/>
<path d="M251.765 119.472H249.605V118.459H249.579C249.019 119.205 248.165 119.632 247.232 119.659C245.205 119.712 243.525 118.112 243.472 116.085C243.472 115.952 243.472 115.845 243.472 115.712C243.285 113.659 244.779 111.845 246.832 111.659C246.885 111.659 246.912 111.659 246.965 111.659C247.899 111.579 248.779 111.952 249.392 112.672H249.419V107.605H251.765V119.472ZM247.712 113.712C246.645 113.685 245.765 114.539 245.739 115.605C245.712 116.672 246.565 117.552 247.632 117.579C248.699 117.605 249.579 116.752 249.605 115.685C249.605 115.659 249.605 115.659 249.605 115.632C249.685 114.645 248.965 113.792 247.979 113.712C247.899 113.712 247.792 113.712 247.712 113.712Z" fill="#314080"/>
<path d="M260.885 118.139C260.085 119.099 258.912 119.659 257.659 119.659C255.445 119.792 253.552 118.085 253.419 115.872C253.285 113.659 254.992 111.765 257.205 111.632C257.365 111.632 257.499 111.632 257.659 111.632C259.632 111.605 261.232 113.179 261.259 115.152C261.259 115.312 261.259 115.499 261.232 115.659V116.405H255.765C255.899 117.259 256.672 117.899 257.552 117.872C258.245 117.872 258.859 117.525 259.232 116.939L260.885 118.139ZM258.885 114.779C258.912 114.005 258.272 113.339 257.499 113.339C257.472 113.339 257.445 113.339 257.445 113.339C256.592 113.285 255.845 113.925 255.792 114.779H258.885V114.779Z" fill="#314080"/>
<path d="M267.632 108.352H271.339L273.899 115.605H273.925L276.512 108.352H280.219V119.472H277.765V110.939H277.739L274.805 119.472H272.939L270.139 110.939H270.112V119.472H267.659L267.632 108.352Z" fill="#314080"/>
<path d="M289.392 118.139C288.592 119.099 287.419 119.659 286.165 119.659C283.952 119.792 282.059 118.085 281.925 115.872C281.792 113.659 283.499 111.765 285.712 111.632C285.872 111.632 286.005 111.632 286.165 111.632C288.139 111.605 289.739 113.179 289.792 115.125C289.792 115.285 289.792 115.472 289.765 115.632V116.379H284.299C284.432 117.232 285.205 117.872 286.085 117.845C286.779 117.845 287.392 117.499 287.765 116.912L289.392 118.139ZM287.392 114.779C287.419 114.005 286.779 113.339 286.005 113.339C285.979 113.339 285.952 113.339 285.952 113.339C285.099 113.285 284.352 113.925 284.299 114.779H287.392V114.779Z" fill="#314080"/>
<path d="M299.179 119.472H297.019V118.459H296.992C296.432 119.205 295.579 119.632 294.645 119.659C292.619 119.712 290.939 118.112 290.885 116.085C290.885 115.952 290.885 115.845 290.885 115.712C290.699 113.659 292.192 111.845 294.245 111.659C294.299 111.659 294.325 111.659 294.379 111.659C295.312 111.579 296.219 111.952 296.805 112.672H296.832V107.605H299.205L299.179 119.472ZM295.125 113.712C294.059 113.685 293.179 114.539 293.152 115.605C293.125 116.672 293.979 117.552 295.045 117.579C296.112 117.605 296.992 116.752 297.019 115.685C297.019 115.659 297.019 115.659 297.019 115.632C297.099 114.645 296.379 113.792 295.392 113.712C295.312 113.712 295.232 113.712 295.125 113.712Z" fill="#314080"/>
<path d="M302.272 108.059C303.019 108.059 303.632 108.672 303.632 109.419C303.632 110.165 303.019 110.779 302.272 110.779C301.525 110.779 300.912 110.165 300.912 109.419C300.912 108.672 301.525 108.059 302.272 108.059ZM301.099 111.819H303.445V119.472H301.099V111.819Z" fill="#314080"/>
<path d="M310.325 114.299C310.059 113.925 309.632 113.712 309.152 113.712C308.085 113.712 307.205 114.565 307.205 115.659C307.205 116.752 308.059 117.605 309.152 117.605C309.605 117.605 310.032 117.392 310.325 117.019L311.872 118.645C311.125 119.339 310.165 119.685 309.152 119.659C306.939 119.792 305.045 118.085 304.912 115.872C304.779 113.659 306.485 111.765 308.699 111.632C308.859 111.632 308.992 111.632 309.152 111.632C310.165 111.605 311.125 111.979 311.872 112.645L310.325 114.299Z" fill="#314080"/>
<path d="M313.925 108.059C314.672 108.059 315.285 108.672 315.285 109.419C315.285 110.165 314.672 110.779 313.925 110.779C313.179 110.779 312.565 110.165 312.565 109.419C312.565 108.672 313.179 108.059 313.925 108.059ZM312.752 111.819H315.099V119.472H312.752V111.819Z" fill="#314080"/>
<path d="M316.805 111.819H319.072V112.859H319.099C319.552 112.059 320.405 111.605 321.339 111.632C323.739 111.632 324.165 113.205 324.165 115.259V119.472H321.819V115.739C321.819 114.859 321.792 113.739 320.592 113.739C319.392 113.739 319.179 114.699 319.179 115.685V119.499H316.832L316.805 111.819Z" fill="#314080"/>
<path d="M330.619 118.512H330.565C330.005 119.285 329.099 119.712 328.139 119.659C326.805 119.819 325.579 118.832 325.445 117.499C325.445 117.445 325.445 117.365 325.419 117.312C325.419 114.672 328.619 114.619 330.592 114.619C330.565 113.845 329.925 113.232 329.152 113.259C329.125 113.259 329.099 113.259 329.072 113.259C328.325 113.259 327.632 113.605 327.152 114.165L325.899 112.859C326.832 112.032 328.032 111.605 329.259 111.632C332.005 111.632 332.752 113.019 332.752 115.579V119.472H330.592L330.619 118.512ZM330.059 116.139C329.339 116.139 327.739 116.192 327.739 117.232C327.739 117.792 328.325 118.059 328.859 118.059C329.792 118.059 330.645 117.579 330.645 116.619V116.112L330.059 116.139Z" fill="#314080"/>
<path d="M339.232 108.352H343.365C345.685 108.352 347.605 109.099 347.605 111.739C347.605 114.379 345.819 115.152 343.499 115.152H341.712V119.499H339.259L339.232 108.352ZM341.685 113.072H343.312C344.165 113.072 345.045 112.779 345.045 111.739C345.045 110.592 343.872 110.432 342.939 110.432H341.685V113.072Z" fill="#314080"/>
<path d="M348.832 111.819H351.179V113.045H351.205C351.579 112.192 352.459 111.632 353.419 111.632C353.685 111.632 353.952 111.659 354.192 111.712V113.872C353.872 113.792 353.525 113.739 353.179 113.712C351.392 113.712 351.179 114.752 351.179 116.272V119.472H348.832V111.819Z" fill="#314080"/>
<path d="M356.432 108.059C357.179 108.059 357.792 108.672 357.792 109.419C357.792 110.165 357.179 110.779 356.432 110.779C355.685 110.779 355.072 110.165 355.072 109.419C355.072 108.672 355.659 108.059 356.432 108.059ZM355.259 111.819H357.605V119.445H355.232L355.259 111.819Z" fill="#314080"/>
<path d="M358.512 111.819H361.045L362.992 117.019H363.019L364.805 111.819H367.179L364.139 119.472H361.632L358.512 111.819Z" fill="#314080"/>
<path d="M372.832 118.512H372.805C372.245 119.285 371.339 119.712 370.379 119.659C369.045 119.819 367.819 118.832 367.659 117.499C367.659 117.445 367.659 117.365 367.632 117.312C367.632 114.672 370.832 114.619 372.805 114.619C372.805 113.845 372.165 113.232 371.392 113.232C371.365 113.232 371.339 113.232 371.312 113.232C370.565 113.232 369.872 113.579 369.392 114.139L368.139 112.832C369.072 112.005 370.272 111.579 371.499 111.605C374.245 111.605 374.992 112.992 374.992 115.552V119.445H372.832V118.512ZM372.245 116.139C371.525 116.139 369.925 116.192 369.925 117.232C369.925 117.792 370.512 118.059 371.045 118.059C371.979 118.059 372.832 117.579 372.832 116.619V116.112L372.245 116.139Z" fill="#314080"/>
<path d="M384.485 119.472H382.325V118.459H382.299C381.739 119.205 380.885 119.632 379.952 119.659C377.925 119.712 376.245 118.112 376.192 116.085C376.192 115.952 376.192 115.845 376.192 115.712C376.005 113.659 377.525 111.845 379.579 111.659C379.632 111.659 379.659 111.659 379.712 111.659C380.619 111.552 381.525 111.925 382.112 112.645H382.139V107.579H384.485V119.472ZM380.432 113.712C379.365 113.685 378.485 114.539 378.459 115.605C378.432 116.672 379.285 117.552 380.352 117.579C381.419 117.605 382.299 116.752 382.325 115.685C382.325 115.659 382.325 115.659 382.325 115.632C382.405 114.672 381.685 113.792 380.699 113.712C380.619 113.712 380.512 113.712 380.432 113.712Z" fill="#314080"/>
<path d="M391.179 118.512H391.125C390.565 119.285 389.659 119.712 388.699 119.659C387.365 119.819 386.139 118.832 386.005 117.499C386.005 117.445 386.005 117.365 385.979 117.312C385.979 114.672 389.179 114.619 391.152 114.619C391.152 113.845 390.512 113.232 389.739 113.232C389.712 113.232 389.685 113.232 389.659 113.232C388.912 113.232 388.219 113.579 387.739 114.139L386.485 112.859C387.419 112.032 388.619 111.605 389.845 111.632C392.592 111.632 393.339 113.019 393.339 115.579V119.472H391.179V118.512ZM390.592 116.139C389.872 116.139 388.272 116.192 388.272 117.232C388.272 117.792 388.859 118.059 389.392 118.059C390.325 118.059 391.179 117.579 391.179 116.619V116.112L390.592 116.139Z" fill="#314080"/>
</svg>
