<svg width="400" height="81" viewBox="0 0 400 81" fill="none" xmlns="http://www.w3.org/2000/svg">
<path d="M105.942 31.5309C105.037 30.363 103.705 29.3926 101.978 28.6524C100.251 27.8958 97.389 27.205 94.6257 26.58C92.0105 25.9879 90.1189 25.3464 89.0334 24.6556C87.9149 23.9648 87.3557 22.9614 87.3557 21.662C87.3557 20.1324 87.9807 18.9152 89.2307 18.0435C90.4643 17.1882 92.1749 16.7441 94.3132 16.7441C97.0271 16.7441 100.234 17.5336 103.096 18.9152V14.0301C102.422 13.7176 101.583 13.3722 100.892 13.1419C98.82 12.4511 96.5995 12.1057 94.3132 12.1057C91.7966 12.1057 89.5597 12.5334 87.6353 13.3722C85.7109 14.2111 84.2141 15.4118 83.1614 16.9085C82.1087 18.4053 81.5824 20.1324 81.5824 22.0239C81.5824 23.8661 82.0265 25.3957 82.8818 26.58C83.7371 27.7807 85.0365 28.7676 86.7471 29.5406C88.4577 30.3137 90.7111 31.0045 93.4414 31.5802C96.0896 32.1723 98.6061 32.7974 99.741 33.4553C100.892 34.1132 101.485 35.1001 101.485 36.3501C101.485 37.7976 100.843 38.9325 99.593 39.7384C98.3594 40.5279 95.9744 40.9391 93.6882 40.9391C91.6322 40.9391 89.6913 40.6595 87.9313 40.1003C86.2536 39.5739 83.4904 37.9949 81.862 36.7942V42.3537C83.0298 43.0938 84.7898 44.0478 86.5333 44.5742C88.7373 45.2485 91.1223 45.5939 93.6388 45.5939C96.3034 45.5939 99.2476 45.1992 101.205 44.4097C103.162 43.6202 104.692 42.5017 105.712 41.0378C106.748 39.5904 107.274 37.8634 107.274 35.9389C107.307 34.179 106.847 32.6822 105.942 31.5309Z" fill="#282727"/>
<path d="M135.631 38.0936L129.084 18.9316H125.367L118.64 37.9949L112.242 18.9316H106.912L116.354 45.5446H120.581L127.094 27.1392L133.575 45.5446H137.802L147.276 18.9316H142.226L135.631 38.0936Z" fill="#282727"/>
<path d="M156.355 18.9316H151.092V45.561H156.355V18.9316Z" fill="#282727"/>
<path d="M177.639 31.8104C176.241 31.2018 174.415 30.6426 172.195 30.1492C170.139 29.6886 168.658 29.1787 167.803 28.6524C166.997 28.1425 166.586 27.4352 166.586 26.4977C166.586 25.3463 167.046 24.4746 167.967 23.8331C168.905 23.1752 170.221 22.8462 171.866 22.8462C173.987 22.8462 176.603 23.5041 178.856 24.5897L179.169 24.7378V20.231L179.053 20.1652C178.494 19.902 177.803 19.6224 177.228 19.425C175.534 18.8658 173.741 18.5862 171.882 18.5862C169.843 18.5862 168.017 18.9316 166.438 19.6224C164.859 20.3132 163.625 21.3001 162.753 22.5337C161.882 23.7838 161.438 25.2147 161.438 26.7773C161.438 28.307 161.799 29.5899 162.523 30.5768C163.247 31.5637 164.316 32.3861 165.714 33.0276C167.096 33.6526 168.905 34.2118 171.109 34.6724C173.198 35.1329 174.711 35.6264 175.599 36.1362C176.438 36.6132 176.849 37.3041 176.849 38.2087C176.849 39.2778 176.405 40.0838 175.468 40.6924C174.514 41.3009 173.149 41.6134 171.372 41.6134C169.76 41.6134 168.247 41.3338 166.849 40.9555C165.04 40.4456 162.096 38.6528 162.096 38.6528V43.4885L162.194 43.5543C163.165 44.1793 164.135 44.607 165.566 45.0511C167.342 45.5939 169.283 45.8735 171.323 45.8735C173.494 45.8735 175.402 45.5445 176.997 44.9031C178.609 44.2616 179.859 43.324 180.731 42.1233C181.586 40.9226 182.031 39.4916 182.031 37.8962C182.031 36.4159 181.636 35.1823 180.879 34.1954C180.155 33.2414 179.053 32.4354 177.639 31.8104Z" fill="#282727"/>
<path d="M202.459 31.8104C201.061 31.2018 199.235 30.6426 197.015 30.1492C194.959 29.6886 193.479 29.1787 192.623 28.6524C191.817 28.1425 191.406 27.4352 191.406 26.4977C191.406 25.3463 191.867 24.4746 192.788 23.8331C193.725 23.1752 195.041 22.8462 196.686 22.8462C198.808 22.8462 201.423 23.5041 203.676 24.5897L203.989 24.7378V20.231L203.874 20.1652C203.314 19.902 202.624 19.6224 202.048 19.425C200.354 18.8658 198.561 18.5862 196.702 18.5862C194.663 18.5862 192.837 18.9316 191.258 19.6224C189.679 20.3132 188.445 21.3001 187.574 22.5337C186.702 23.7838 186.258 25.2147 186.258 26.7773C186.258 28.307 186.62 29.5899 187.343 30.5768C188.067 31.5637 189.136 32.3861 190.534 33.0276C191.916 33.6526 193.725 34.2118 195.929 34.6724C198.018 35.1329 199.531 35.6264 200.42 36.1362C201.258 36.6132 201.67 37.3041 201.67 38.2087C201.67 39.2778 201.226 40.0838 200.288 40.6924C199.334 41.3009 197.969 41.6134 196.192 41.6134C194.581 41.6134 193.067 41.3338 191.669 40.9555C189.86 40.4456 186.916 38.6528 186.916 38.6528V43.4885L187.014 43.5543C187.985 44.1793 188.955 44.607 190.386 45.0511C192.163 45.5939 194.104 45.8735 196.143 45.8735C198.314 45.8735 200.222 45.5445 201.818 44.9031C203.43 44.2616 204.68 43.324 205.551 42.1233C206.407 40.9226 206.851 39.4916 206.851 37.8962C206.851 36.4159 206.456 35.1823 205.699 34.1954C204.976 33.2414 203.874 32.4354 202.459 31.8104Z" fill="#282727"/>
<path d="M234.352 35.8073L225.421 18.9316H221.259V45.5446H225.963L225.914 29.0472L232.575 41.3174H236.046L242.674 28.8827V45.5446H247.362V18.9316H243.25L234.352 35.8073Z" fill="#282727"/>
<path d="M252.543 45.5446H270.636V41.3339H257.675V34.0967H269.88V29.9189H257.675V23.1423H270.636V18.9316H252.543V45.5446Z" fill="#282727"/>
<path d="M284.946 18.9316H274.995V45.561H284.946C289.305 45.561 292.726 44.3768 295.144 42.0411C297.562 39.7055 298.779 36.3995 298.779 32.2217C298.779 28.0439 297.562 24.7542 295.144 22.4186C292.742 20.0995 289.305 18.9316 284.946 18.9316ZM280.258 23.2575H284.65C290.621 23.2575 293.532 26.1852 293.532 32.2217C293.532 38.2745 290.621 41.2187 284.65 41.2187H280.258V23.2575Z" fill="#282727"/>
<path d="M308.286 18.9316H303.022V45.561H308.286V18.9316Z" fill="#282727"/>
<path d="M325.49 22.9286C326.773 22.9286 328.533 23.2576 329.685 23.6194C331.856 24.2938 332.991 24.9024 332.991 24.9024L332.958 20.2805C332.958 20.2805 331.609 19.6555 330.474 19.31C328.649 18.7673 327.185 18.6028 325.408 18.6028C322.793 18.6028 320.474 19.162 318.517 20.2805C316.559 21.399 315.03 23.0109 313.977 25.0504C312.924 27.09 312.398 29.5078 312.398 32.2218C312.398 34.9521 312.924 37.37 313.977 39.4096C315.03 41.4656 316.559 43.0775 318.517 44.1959C320.474 45.3144 322.793 45.8736 325.408 45.8736C329.931 45.8736 332.958 44.1959 332.958 44.1959L333.007 39.574C333.007 39.574 329.043 41.5643 325.49 41.5314C323.023 41.5149 321.099 40.7254 319.767 39.1464C318.418 37.5674 317.743 35.2153 317.743 32.1889C317.743 29.1789 318.418 26.8597 319.767 25.2642C321.099 23.7181 323.023 22.9286 325.49 22.9286Z" fill="#282727"/>
<path d="M352.087 18.9316H347.876L335.738 45.561H341.083L343.748 39.4259H356.314L358.979 45.561H364.242L352.087 18.9316ZM354.505 35.281H345.508L350.014 24.8858L354.505 35.281Z" fill="#282727"/>
<path d="M372.779 13.1418H367.614V45.5445H386.825V41.0871H372.779V13.1418Z" fill="#282727"/>
<path d="M90.744 55.9399H92.5862V66.7134H90.4973V60.3316L88.0136 64.9535H86.4839L84.0003 60.3974V66.7299H81.9114V55.9564H83.7865L87.257 62.5356L90.744 55.9399Z" fill="#282727"/>
<path d="M103.064 66.7134V55.9399H110.498V57.7821H105.399V60.2987H110.202V62.1409H105.399V64.8383H110.498V66.6805H103.064V66.7134Z" fill="#282727"/>
<path d="M120.795 55.9399H124.989C126.157 55.9399 127.176 56.1538 128.015 56.5814C128.854 57.0091 129.512 57.6176 129.956 58.4236C130.4 59.2296 130.63 60.2 130.63 61.3185C130.63 62.4369 130.417 63.4074 129.973 64.2133C129.528 65.0193 128.887 65.6443 128.032 66.0719C127.193 66.4996 126.173 66.7134 124.989 66.7134H120.795V55.9399ZM124.808 64.7725C127.094 64.7725 128.246 63.6212 128.246 61.302C128.246 58.9993 127.094 57.8479 124.808 57.8479H123.18V64.7725H124.808Z" fill="#282727"/>
<path d="M141.091 66.7134V55.9399H143.476V66.7134H141.091Z" fill="#282727"/>
<path d="M158.625 66.1541C157.819 65.6936 157.194 65.0521 156.766 64.2132C156.339 63.3744 156.125 62.404 156.125 61.3019C156.125 60.1999 156.339 59.2295 156.766 58.3906C157.194 57.5518 157.819 56.9103 158.625 56.4498C159.431 55.9892 160.385 55.7754 161.471 55.7754C162.178 55.7754 162.869 55.8905 163.51 56.1044C164.168 56.3182 164.694 56.6307 165.122 57.009L164.365 58.7031C163.905 58.3413 163.428 58.0946 162.967 57.9301C162.507 57.7656 162.03 57.6834 161.52 57.6834C160.566 57.6834 159.826 57.9959 159.316 58.6045C158.806 59.213 158.543 60.1177 158.543 61.3019C158.543 62.4862 158.806 63.3908 159.316 63.9994C159.826 64.608 160.566 64.9205 161.52 64.9205C162.013 64.9205 162.507 64.8383 162.967 64.6738C163.428 64.5093 163.905 64.2461 164.365 63.9007L165.122 65.5949C164.711 65.9896 164.168 66.2857 163.51 66.4995C162.852 66.7133 162.178 66.8285 161.471 66.8285C160.385 66.8449 159.431 66.6147 158.625 66.1541Z" fill="#282727"/>
<path d="M177.771 66.7134V55.9399H180.156V66.7134H177.771Z" fill="#282727"/>
<path d="M201.505 55.9399H203.742V66.7134H201.966L196.604 59.8546V66.7134H194.383V55.9399H196.143L201.505 62.7659V55.9399Z" fill="#282727"/>
<path d="M223.315 66.7134L222.295 64.3284H217.279L216.259 66.7134H213.858L218.808 55.9399H220.716L225.667 66.7134H223.315ZM218.068 62.5192H221.522L219.795 58.4894L218.068 62.5192Z" fill="#282727"/>
<path d="M244.911 55.9399H249.862C251.03 55.9399 251.951 56.236 252.593 56.8281C253.251 57.4203 253.563 58.2427 253.563 59.3118C253.563 60.3809 253.234 61.2033 252.593 61.7954C251.935 62.3876 251.03 62.6836 249.862 62.6836H247.296V66.7299H244.911V55.9399ZM249.55 60.8579C250.734 60.8579 251.343 60.348 251.343 59.3118C251.343 58.7855 251.195 58.3907 250.899 58.1275C250.603 57.8808 250.158 57.7492 249.55 57.7492H247.28V60.8579H249.55Z" fill="#282727"/>
<path d="M275.867 66.7134H273.268L271.409 63.2758C271.261 63.0126 271.08 62.8152 270.866 62.7001C270.653 62.585 270.389 62.5192 270.061 62.5192H268.876V66.7134H266.524V55.9399H271.475C272.742 55.9399 273.696 56.2196 274.337 56.7788C274.978 57.338 275.307 58.144 275.307 59.1802C275.307 60.0026 275.077 60.677 274.633 61.2198C274.173 61.7626 273.548 62.1244 272.709 62.3053C273.268 62.4534 273.745 62.8481 274.123 63.506L275.867 66.7134ZM272.594 60.348C272.906 60.1013 273.054 59.7394 273.054 59.2296C273.054 58.7032 272.906 58.3249 272.594 58.0946C272.281 57.8644 271.788 57.7492 271.113 57.7492H268.843V60.7099H271.113C271.804 60.7099 272.297 60.5947 272.594 60.348Z" fill="#282727"/>
<path d="M291.953 66.7134V55.9399H294.338V66.7134H291.953Z" fill="#282727"/>
<path d="M317.299 55.9399H319.717L314.865 66.7134H312.957L308.105 55.9399H310.589L313.944 63.7528L317.299 55.9399Z" fill="#282727"/>
<path d="M340.606 66.7134L339.586 64.3284H334.57L333.55 66.7134H331.149L336.099 55.9399H338.007L342.958 66.7134H340.606ZM335.343 62.5192H338.797L337.07 58.4894L335.343 62.5192Z" fill="#282727"/>
<path d="M354.094 55.9399H358.288C359.456 55.9399 360.475 56.1538 361.314 56.5814C362.153 57.0091 362.811 57.6176 363.255 58.4236C363.699 59.2296 363.93 60.2 363.93 61.3185C363.93 62.4369 363.716 63.4074 363.272 64.2133C362.828 65.0193 362.186 65.6443 361.331 66.0719C360.492 66.4996 359.472 66.7134 358.288 66.7134H354.094V55.9399ZM358.107 64.7725C360.393 64.7725 361.545 63.6212 361.545 61.302C361.545 58.9993 360.393 57.8479 358.107 57.8479H356.479V64.7725H358.107Z" fill="#282727"/>
<path d="M384.506 66.7134L383.486 64.3284H378.47L377.45 66.7134H375.048L379.999 55.9399H381.907L386.858 66.7134H384.506ZM379.243 62.5192H382.697L380.97 58.4894L379.243 62.5192Z" fill="#282727"/>
<path d="M31.2513 47.2881H11.8427V66.6968H31.2513V47.2881Z" fill="#EA0029"/>
<path d="M31.2513 12.3689H11.8427V31.7776H31.2513V12.3689Z" fill="#EA0029"/>
<path d="M66.1705 47.2881H46.7618V66.6968H66.1705V47.2881Z" fill="#EA0029"/>
<path d="M66.1705 12.3689H46.7618V31.7776H66.1705V12.3689Z" fill="#EA0029"/>
</svg>
